<!-- Generator: Adobe Illustrator 19.0.0, SVG Export Plug-In  -->
<svg version="1.1" x="0px" y="0px" width="200px" height="43.3px" viewBox="0 0 200 43.3" style="enable-background:new 0 0 200 43.3;">
<path class="st0" d="M23.5,11.7c-0.2,0-0.4-0.1-0.6-0.1C23.1,11.6,23.3,11.7,23.5,11.7z"/>
<g class="text">
  <path  d="M57.6,21.7v1.8h-5.3v5.4l2.3,0.5v1.4H48v-1.4l1.9-0.5V16.5L48,16.1v-1.2l4.3-0.1h7v3.8h-1.5l-0.6-1.9h-4.9v5.1
    H57.6z"/>
  <path  d="M70.8,20c0.9,1.1,1.4,2.6,1.4,4.4c0,1.3-0.2,2.4-0.7,3.4s-1.1,1.8-2,2.3c-0.9,0.5-1.9,0.8-3,0.8
    c-1.7,0-3.1-0.5-4-1.6c-1-1-1.4-2.6-1.4-4.6c0-1.3,0.2-2.4,0.7-3.4c0.5-1,1.2-1.7,2.1-2.2c0.9-0.5,1.9-0.8,3-0.8
    C68.6,18.4,69.9,18.9,70.8,20z M64.3,21.3c-0.5,0.7-0.8,1.9-0.8,3.3c0,3,1.1,4.5,3.2,4.5c1.1,0,1.9-0.4,2.4-1.1
    c0.5-0.8,0.8-1.9,0.8-3.4c0-2.9-1-4.3-3.1-4.3C65.6,20.2,64.8,20.6,64.3,21.3z"/>
  <path  d="M80.1,30.7h-6.3v-1.3l1.9-0.6V14.9l-1.9-0.5v-1.3l4.3-0.1v15.8l2.1,0.6V30.7z"/>
  <path  d="M88.6,20.3l-1-0.3v-1.2l5-0.1V20L91,20.2h0l-2.4,3.5l2.9,5.1h0l1.7,0.6v1.3h-3.1L87,24.9h-2v4l1.5,0.6v1.3
    h-5.7v-1.3l1.9-0.6V14.9l-1.9-0.5v-1.3l4.2-0.1v10.1h1.9L88.6,20.3z"/>
  <path  d="M100.2,28.2l2.5-7.9l-1.6-0.3v-1.2l5.4-0.1V20l-1.5,0.2l-3.2,9l-0.2,0.5c-0.5,1.4-1,2.5-1.4,3.3
    c-0.4,0.9-1,1.6-1.8,2.2c-0.7,0.6-1.7,0.9-2.8,0.9c-0.2,0-0.5,0-0.8,0c-0.3,0-0.5-0.1-0.6-0.1l0.2-1.6h1.1c0.7,0,1.4-0.3,2-0.9
    c0.6-0.6,1.1-1.6,1.7-2.8L95,20.3L93.6,20v-1.2l5.4-0.1V20l-1.6,0.2L100.2,28.2z"/>
  <path  d="M116.1,28.6c0.2,0.1,0.5,0.2,0.9,0.3c0.4,0.1,0.8,0.1,1.2,0.1c0.9,0,1.7-0.2,2.4-0.6c0.7-0.4,1.1-1,1.1-1.8
    c0-0.5-0.2-0.9-0.5-1.2c-0.3-0.3-0.7-0.6-1.1-0.8c-0.4-0.2-1.1-0.5-1.9-0.7c-1-0.4-1.9-0.7-2.5-1c-0.6-0.3-1.2-0.8-1.6-1.4
    s-0.7-1.4-0.7-2.3c0-1.5,0.5-2.6,1.5-3.4s2.3-1.1,3.9-1.1c0.6,0,1.3,0.1,2,0.2c0.7,0.1,1.3,0.3,1.8,0.4c0.5,0.1,0.8,0.2,1,0.3
    l-0.1,3.9h-1.5l-0.8-2.4c-0.1,0-0.2-0.1-0.4-0.1s-0.5-0.1-0.9-0.2s-0.7-0.1-1.1-0.1c-1,0-1.7,0.2-2.3,0.7c-0.5,0.4-0.8,1-0.8,1.6
    c0,0.5,0.2,0.9,0.5,1.2c0.3,0.3,0.7,0.6,1.1,0.8c0.5,0.2,1.1,0.5,1.9,0.8c1,0.3,1.8,0.7,2.4,1s1.2,0.8,1.6,1.3
    c0.4,0.6,0.7,1.3,0.7,2.2c0,1.1-0.3,2-0.8,2.8c-0.5,0.8-1.3,1.3-2.2,1.7c-0.9,0.4-1.9,0.5-3,0.5c-0.7,0-1.4-0.1-2.1-0.2
    s-1.3-0.3-1.7-0.4c-0.5-0.1-0.7-0.2-0.9-0.3v-4h1.8l0.5,2.4C115.8,28.4,115.9,28.5,116.1,28.6z"/>
  <path  d="M133.8,20.4h-3.3v7.3c0,0.9,0.4,1.4,1.1,1.4c0.5,0,1.1-0.2,1.8-0.6l0.6,1.2c-1,0.8-2.1,1.1-3.2,1.1
    c-0.8,0-1.4-0.3-1.9-0.8s-0.7-1.4-0.7-2.5v-7.2h-2.3v-1.5l2.3-0.2v-2.9l2.3-0.5v3.3h3.3V20.4z"/>
  <path  d="M140.9,19c0.6-0.4,1.2-0.6,1.9-0.6c0.3,0,0.7,0,1,0.1c0.3,0.1,0.5,0.1,0.7,0.2c0.2,0.1,0.3,0.1,0.4,0.1
    l-0.1,3.3h-1.5l-0.3-1.7c-0.8,0-1.4,0.2-2,0.5s-1,0.8-1.3,1.2v6.8l2.3,0.6v1.3h-6.5v-1.3l1.9-0.6v-8.5l-1.9-0.5v-1.2l3.8-0.1
    l0.2,1.7C139.8,19.8,140.3,19.4,140.9,19z"/>
  <path  d="M155.8,20c0.9,1.1,1.4,2.6,1.4,4.4c0,1.3-0.2,2.4-0.7,3.4c-0.5,1-1.1,1.8-2,2.3c-0.9,0.5-1.9,0.8-3,0.8
    c-1.7,0-3.1-0.5-4-1.6c-1-1-1.4-2.6-1.4-4.6c0-1.3,0.2-2.4,0.7-3.4c0.5-1,1.2-1.7,2.1-2.2c0.9-0.5,1.9-0.8,3-0.8
    C153.5,18.4,154.9,18.9,155.8,20z M149.2,21.3c-0.5,0.7-0.8,1.9-0.8,3.3c0,3,1.1,4.5,3.2,4.5c1.1,0,1.9-0.4,2.4-1.1
    c0.5-0.8,0.8-1.9,0.8-3.4c0-2.9-1-4.3-3.1-4.3C150.6,20.2,149.8,20.6,149.2,21.3z"/>
  <path  d="M166.6,20.3l-1-0.3v-1.2l5-0.1V20l-1.6,0.3h0l-2.4,3.5l2.9,5.1h0l1.7,0.6v1.3h-3.1l-3.3-5.8h-2v4l1.5,0.6v1.3
    h-5.7v-1.3l1.9-0.6V14.9l-1.9-0.5v-1.3l4.2-0.1v10.1h1.9L166.6,20.3z"/>
  <path  d="M175.6,28c0.6,0.7,1.4,1.1,2.4,1.1c0.7,0,1.3-0.1,1.9-0.3c0.6-0.2,1-0.4,1.4-0.6c0.4-0.2,0.6-0.3,0.6-0.4
    l0.8,1.2c0,0-0.2,0.2-0.7,0.6c-0.5,0.3-1.1,0.6-1.8,0.9c-0.7,0.3-1.5,0.4-2.3,0.4c-1.8,0-3.2-0.5-4.1-1.6s-1.4-2.6-1.4-4.5
    c0-1.2,0.2-2.3,0.7-3.3c0.5-1,1.1-1.7,2-2.3s1.8-0.8,2.9-0.8c3.2,0,4.8,1.8,4.8,5.4c0,0.2,0,0.5,0,0.7c0,0.2-0.1,0.4-0.1,0.5
    l-7.9,0C174.7,26.2,175,27.2,175.6,28z M179.7,21c-0.4-0.6-1-0.9-1.9-0.9c-0.9,0-1.6,0.3-2.1,0.9s-0.8,1.3-0.9,2.2h5.5
    C180.3,22.3,180.1,21.6,179.7,21z"/>
  <path  d="M187.2,29.1c0.4,0.1,0.8,0.1,1.3,0.1c1.7,0,2.6-0.6,2.6-1.8c0-0.5-0.2-0.9-0.6-1.1c-0.4-0.2-1.1-0.5-2-0.8
    c-0.8-0.3-1.5-0.5-2-0.8c-0.5-0.2-0.9-0.6-1.3-1c-0.4-0.5-0.5-1.1-0.5-1.8c0-1.1,0.4-2,1.2-2.6c0.8-0.6,1.8-0.9,3-0.9
    c0.5,0,1.1,0.1,1.7,0.2c0.6,0.1,1.1,0.2,1.5,0.3s0.7,0.2,0.8,0.2l-0.1,3.1h-1.5l-0.4-1.8c0,0-0.1,0-0.3-0.1s-0.4-0.1-0.6-0.1
    c-0.3,0-0.6-0.1-0.9-0.1c-1.4,0-2,0.5-2,1.5c0,0.5,0.2,0.9,0.7,1.1c0.4,0.3,1.1,0.5,2,0.8c0.8,0.3,1.4,0.5,1.9,0.8
    c0.5,0.2,0.9,0.6,1.3,1s0.5,1,0.5,1.7c0,1.3-0.5,2.2-1.4,2.9c-1,0.7-2.1,1-3.6,1c-0.6,0-1.2,0-1.7-0.1s-1-0.1-1.3-0.2
    c-0.3-0.1-0.5-0.1-0.6-0.2V27h1.6l0.2,2C186.6,29,186.8,29.1,187.2,29.1z"/>
</g>
<g class="flower">
  <path  d="M21.5,16.3c-0.2,0-0.4,0.2-0.5,0.7c-0.1,0.2,0.1,0.3,0.2,0.4c0.6,0.2,0.5,0.3,0.9-0.3c0-0.1,0-0.1,0-0.2
    C22.2,16.7,21.7,16.3,21.5,16.3z"/>
  <path  d="M22.3,17c-0.1,0.1-0.2,0.3-0.3,0.4c-0.1,0.1-0.1,0.3,0,0.4c0.2,0.2,0.5,0.3,0.6,0.2c0.2-0.1,0.3-0.2,0.5-0.4
    c0,0,0.1-0.1,0.1-0.1c0,0,0-0.1-0.1-0.1c-0.1-0.1-0.3-0.3-0.4-0.4C22.6,16.8,22.4,16.9,22.3,17z"/>
  <path  d="M24.5,17.2c-0.1-0.2-0.2-0.2-0.4-0.1c-0.2,0.1-0.3,0.2-0.5,0.3c-0.1,0.1-0.1,0.2-0.1,0.3
    c0.1,0.2,0.2,0.3,0.4,0.5c0,0,0.1,0,0.2,0.1c0.2-0.1,0.5-0.2,0.6-0.3c0.1-0.1-0.1-0.3-0.1-0.5C24.6,17.4,24.5,17.3,24.5,17.2z"/>
  <path  d="M20.8,17.7c0,0.1,0,0.1-0.1,0.2c-0.1,0.4,0.1,0.6,0.5,0.6c0.2,0,0.3-0.1,0.4-0.3c0.3-0.5,0.3-0.5-0.2-0.8
    C21,17.3,20.9,17.3,20.8,17.7z"/>
  <path  d="M23,16.3c-0.3,0.4-0.3,0.4,0,0.8c0,0,0,0,0.1,0.1c0.2,0.3,0.3,0.3,0.6,0c0.1-0.1,0.2-0.2,0.3-0.3
    c-0.1-0.2-0.2-0.4-0.3-0.5C23.6,16.1,23.2,16.1,23,16.3z"/>
  <path  d="M19.1,17.2c-0.1,0-0.2,0-0.3,0c-0.1,0-0.2,0.1-0.2,0.1c-0.2,0.3-0.1,0.6,0,0.9c0.1,0.2,0.3,0.1,0.4,0.1
    c0,0,0.1,0,0.1,0c0.4,0,0.4-0.1,0.4-0.5C19.5,17.2,19.5,17.2,19.1,17.2z"/>
  <path  d="M18,17.6c-0.1,0-0.2,0-0.3,0c-0.4,0-0.5,0.1-0.5,0.5c0,0.4,0.3,0.6,0.7,0.5c0,0,0.1,0,0.1,0
    c0.5-0.1,0.6-0.2,0.4-0.7C18.3,17.7,18.2,17.5,18,17.6z"/>
  <path  d="M23.3,17.7c-0.2,0-0.6,0.4-0.6,0.6c0,0.3,0.1,0.5,0.4,0.5c0.5-0.1,0.8-0.2,0.8-0.4
    C23.8,18.2,23.5,17.7,23.3,17.7z"/>
  <path  d="M20.7,16.1C20.6,16.1,20.6,16.1,20.7,16.1c-0.3-0.2-0.5-0.2-0.7,0.1c-0.1,0.1-0.1,0.2-0.1,0.3
    c0,0.3,0,0.4,0.3,0.5c0.1,0,0.3,0.1,0.4,0.1c0.1,0,0.2,0,0.2-0.1C21.2,16.6,21.1,16.4,20.7,16.1z"/>
  <path  d="M19.2,18.3c-0.1,0-0.3,0.1-0.4,0.1c-0.2,0-0.3,0.1-0.2,0.3c0.1,0.2,0.1,0.4,0.2,0.5c0,0.1,0.1,0.2,0.2,0.2
    c0.2,0,0.4-0.1,0.6-0.2c0.1-0.1,0.1-0.2,0.1-0.4c0,0,0,0,0,0c0,0,0-0.1,0-0.1C19.7,18.3,19.6,18.2,19.2,18.3z"/>
  <path  d="M19.7,17.6C19.7,17.6,19.7,17.6,19.7,17.6c0,0.6,0,0.6,0.6,0.6c0.1,0,0.3,0,0.3-0.1c0.1-0.2,0.2-0.5,0.2-0.7
    c0-0.1-0.2-0.1-0.4-0.2c0,0-0.1,0-0.1,0C19.8,17,19.7,17.1,19.7,17.6z"/>
  <path  d="M28.5,18.4c-0.1-0.1-0.3-0.3-0.5-0.3c-0.2-0.1-0.5,0-0.6,0.3c0,0.1-0.1,0.2-0.1,0.3c-0.1,0.4,0.2,0.7,0.6,0.7
    c0,0,0.2-0.1,0.2-0.2c0.1-0.2,0.2-0.4,0.3-0.6C28.6,18.6,28.6,18.5,28.5,18.4z"/>
  <path  d="M16.5,18.3c-0.4,0.1-0.4,0.1-0.4,0.5c0,0.1,0.1,0.3,0.1,0.4c0.1,0.2,0.2,0.3,0.4,0.2c0.2-0.1,0.4-0.2,0.6-0.3
    c0.2-0.1,0.2-0.3,0.1-0.5C17.1,18.3,16.9,18.2,16.5,18.3z"/>
  <path  d="M26.9,19.1c-0.1,0-0.4,0.1-0.4,0.1c-0.1,0.3-0.1,0.5-0.1,0.8c0,0,0,0.1,0.1,0.1c0.3,0.3,0.8,0.2,0.9-0.2
    c0,0,0-0.1,0-0.1c0.1-0.3,0.1-0.4-0.1-0.6C27.2,19.2,27,19.2,26.9,19.1z"/>
  <path  d="M28.2,21.7c0-0.1,0.1-0.1,0.1-0.2c-0.1-0.2-0.1-0.3-0.3-0.4c-0.1-0.1-0.6-0.2-0.7-0.1
    c-0.1,0.2-0.3,0.4-0.4,0.6c0,0.1,0,0.2,0,0.3c0.3,0.4,0.6,0.4,0.9,0C28,21.8,28.1,21.7,28.2,21.7z"/>
  <path  d="M27.5,24.1c0.3,0,0.8-0.3,0.8-0.6c0-0.3-0.3-0.7-0.5-0.7c-0.2,0-0.7,0.4-0.7,0.6C27,23.7,27.3,24.1,27.5,24.1z
    "/>
  <path  d="M28.6,20C28.6,20,28.6,20,28.6,20c-0.2-0.3-0.4-0.5-0.7-0.5c-0.1,0-0.2,0.1-0.3,0.2c-0.1,0.2-0.2,0.4-0.2,0.6
    c-0.1,0.2,0,0.3,0.2,0.4c0.1,0.1,0.3,0.1,0.4,0.1C28.2,20.8,28.6,20.2,28.6,20z"/>
  <path  d="M23.8,18.8c-0.3,0-0.7,0.2-0.7,0.5c0,0.4,0.1,0.5,0.5,0.5c0.4,0,0.5-0.1,0.5-0.4C24.1,19,23.9,18.8,23.8,18.8z
    "/>
  <path  d="M23,20c-0.1-0.2-0.3-0.2-0.6-0.1c-0.2,0.1-0.4,0.4-0.3,0.5c0.1,0.1,0.3,0.3,0.5,0.3c0.3,0,0.4-0.1,0.5-0.3
    c0.1,0.1,0.3,0.3,0.4,0.3c0.2,0,0.3-0.2,0.4-0.3c0.2-0.4,0.1-0.6-0.3-0.6C23.2,19.7,23.2,19.7,23,20z"/>
  <path  d="M25.7,17.8c-0.5,0.1-0.6,0.2-0.5,0.8c0.1,0.3,0.1,0.3,0.5,0.3c0.5,0,0.5,0,0.5-0.5c0-0.1,0-0.1,0-0.2
    C26.2,17.9,25.9,17.8,25.7,17.8z"/>
  <path  d="M27.6,22.7c0.1-0.2-0.1-0.5-0.4-0.6c-0.3-0.2-0.4-0.1-0.5,0.1c-0.1,0.1-0.1,0.1-0.2,0.2
    c-0.1,0.1-0.2,0.2-0.1,0.4c0.1,0.2,0.2,0.4,0.5,0.4C27.1,23.2,27.5,22.9,27.6,22.7z"/>
  <path  d="M26.3,20.5c-0.1,0.1-0.1,0.3-0.1,0.4c0,0.1,0,0.3,0,0.3c0.2,0.1,0.4,0.2,0.7,0.3c0,0,0.1-0.1,0.1-0.1
    c0.1-0.1,0.2-0.3,0.3-0.4c0.1-0.1,0.1-0.3-0.1-0.3c-0.2-0.1-0.4-0.2-0.7-0.3C26.4,20.4,26.3,20.4,26.3,20.5z"/>
  <path  d="M26.1,19c-0.2,0-0.5,0.1-0.7,0.1c0,0-0.1,0.1-0.1,0.1c-0.1,0.4,0.1,0.7,0.5,0.8c0,0,0.1,0,0.1,0
    c0.2,0,0.3,0,0.3-0.3c0-0.1,0-0.3,0.1-0.4C26.3,19.2,26.3,19,26.1,19z"/>
  <path  d="M24.3,26.8C24.3,26.8,24.3,26.8,24.3,26.8c0.4,0.1,0.6-0.1,0.6-0.5c0-0.1,0-0.2-0.1-0.3c0-0.1-0.1-0.1-0.2-0.2
    c-0.2,0-0.3-0.1-0.5-0.1c-0.2,0-0.3,0-0.4,0.2C23.8,26.5,23.7,26.7,24.3,26.8z"/>
  <path  d="M23.9,25c-0.1-0.1-0.1-0.3-0.2-0.4c-0.2-0.1-0.3-0.2-0.5,0c-0.2,0.1-0.4,0.6-0.3,0.7c0,0,0,0.1,0.1,0.1
    c0.1,0,0.2,0.1,0.3,0.1C23.8,25.7,23.9,25.6,23.9,25z"/>
  <path  d="M15.2,19.5c0,0-0.1,0.1-0.1,0.1c0,0.3,0,0.5,0.3,0.8c0.1,0.1,0.3,0.2,0.4,0c0.1-0.1,0.2-0.2,0.4-0.2
    c0.2-0.1,0.2-0.2,0.2-0.4c0-0.3-0.3-0.7-0.5-0.6C15.6,19.3,15.4,19.4,15.2,19.5z"/>
  <path  d="M23.7,26c0-0.2-0.2-0.3-0.7-0.4c-0.2,0-0.5,0.4-0.5,0.7c0,0.1,0.5,0.5,0.7,0.5C23.6,26.8,23.7,26.5,23.7,26z"
    />
  <path  d="M24.6,24.6c-0.5,0-0.7,0.2-0.7,0.8c0,0.2,0.1,0.3,0.6,0.3c0.4,0,0.5-0.1,0.5-0.4C25,24.9,24.8,24.6,24.6,24.6z
    "/>
  <path  d="M27.9,25.2c0.1,0,0.3,0,0.4-0.1c0.4-0.1,0.4-0.1,0.4-0.5c0-0.6-0.2-0.7-0.8-0.5c-0.1,0-0.1,0-0.2,0.1
    c-0.3,0.1-0.3,0.3-0.3,0.6C27.5,25,27.7,25.2,27.9,25.2z"/>
  <path  d="M26.9,26.1c0.5,0,0.5,0,0.6-0.5c0,0,0-0.1,0-0.1c0-0.3-0.3-0.6-0.6-0.5c-0.1,0-0.3,0.1-0.4,0.1
    c-0.1,0-0.2,0.1-0.2,0.2C26.1,25.7,26.4,26.1,26.9,26.1z"/>
  <path  d="M21.5,27.3c0.1,0,0.1,0,0.1,0c0.3,0,0.3-0.3,0.4-0.5c0-0.1,0.1-0.3,0-0.3c-0.2-0.2-0.4-0.3-0.7-0.4
    c0,0,0,0,0,0c-0.2,0.2-0.3,0.4-0.4,0.6c0,0.1,0.1,0.2,0.2,0.4c0,0.1,0.1,0.1,0.2,0.2C21.4,27.2,21.5,27.2,21.5,27.3z"/>
  <path  d="M25.6,24.3c0.1,0,0.1-0.1,0.1-0.2c-0.1-0.2-0.2-0.5-0.3-0.7c0-0.1-0.1-0.1-0.2-0.1c-0.3,0-0.6,0.2-0.6,0.4
    c0,0.2,0,0.4,0.1,0.6c0,0.1,0.1,0.2,0.3,0.2C25.3,24.4,25.5,24.4,25.6,24.3z"/>
  <path  d="M25.4,25.5c0.1,0,0.3,0,0.4,0c0.2,0,0.4-0.2,0.3-0.4c0-0.1-0.1-0.3-0.2-0.4c-0.2-0.3-0.2-0.3-0.5-0.2
    c-0.5,0.2-0.5,0.2-0.4,0.8C25.1,25.4,25.2,25.5,25.4,25.5z"/>
  <path  d="M26.9,24.9C26.9,24.9,26.9,24.9,26.9,24.9c0.3,0,0.4-0.2,0.4-0.4c0-0.5-0.4-0.8-0.8-0.6
    c-0.1,0.1-0.2,0.1-0.3,0.2c-0.1,0.1-0.1,0.2-0.1,0.3C26.2,24.9,26.3,25,26.9,24.9z"/>
  <path  d="M22.9,27.8C22.9,27.8,22.9,27.7,22.9,27.8c0.3-0.2,0.4-0.4,0.4-0.7c0-0.3-0.2-0.3-0.4-0.4
    c-0.5-0.3-0.6-0.2-0.8,0.3c-0.1,0.2,0,0.3,0.1,0.4C22.4,27.5,22.5,27.8,22.9,27.8z"/>
  <path  d="M15.1,25.5c0.2,0.1,0.4,0.2,0.6,0.3c0.2,0.1,0.3,0,0.4-0.1c0.1-0.2,0.2-0.5,0.2-0.7c0-0.1,0-0.1,0-0.1
    c-0.2-0.2-0.4-0.4-0.7-0.4c-0.1,0-0.2,0.1-0.2,0.1c-0.1,0.2-0.2,0.4-0.3,0.7C15,25.3,15,25.5,15.1,25.5z"/>
  <path  d="M15.6,24.3c0,0,0.2-0.1,0.2-0.2c0.1-0.2,0.2-0.4,0.3-0.6c0,0,0-0.1,0-0.1c-0.1-0.3-0.5-0.6-0.7-0.5
    c-0.3,0.2-0.4,0.5-0.6,0.7c0,0,0,0,0,0C14.9,23.9,15.4,24.3,15.6,24.3z"/>
  <path  d="M17.2,26.1c0.2-0.1,0.2-0.4,0.2-0.6c0-0.2-0.1-0.3-0.2-0.4c-0.3-0.3-0.8-0.2-0.9,0.2c0,0.1-0.1,0.3-0.1,0.4
    c0,0.1,0.1,0.3,0.1,0.3C16.6,26.2,16.9,26.2,17.2,26.1z"/>
  <path  d="M14.9,20.7c-0.2,0.1-0.3,0.2-0.5,0.3c-0.1,0.1-0.2,0.2-0.1,0.3c0.1,0.2,0.2,0.4,0.3,0.5
    c0.1,0.1,0.2,0.1,0.3,0.2c0.1-0.1,0.2-0.1,0.3-0.2c0.1-0.1,0.2-0.2,0.3-0.3c0.2-0.2,0.2-0.4,0-0.7C15.4,20.6,15.1,20.6,14.9,20.7z"
    />
  <path  d="M14,22.7c-0.1,0.1-0.1,0.2,0,0.3c0.1,0.2,0.2,0.3,0.3,0.4c0.3,0.3,0.4,0.3,0.7,0c0.1-0.1,0.1-0.1,0.1-0.2
    c0.1-0.1,0.2-0.3,0.2-0.4c-0.1-0.2-0.1-0.3-0.2-0.4c-0.2-0.3-0.4-0.3-0.7-0.1C14.2,22.4,14.1,22.5,14,22.7z"/>
  <path  d="M18.1,28.8c0.2,0,0.3,0.1,0.5,0.1c0.4,0,0.5-0.2,0.4-0.5c0-0.1,0-0.2-0.1-0.3c-0.1-0.3-0.5-0.6-0.9-0.4
    c-0.3,0.1-0.2,0.4-0.2,0.6c0,0.1,0,0.3,0,0.4C18,28.7,18,28.8,18.1,28.8z"/>
  <path  d="M17.2,27.5c0.1,0,0.2,0.1,0.3,0.1c0.3,0,0.5-0.1,0.5-0.4c0-0.1,0-0.2,0-0.3c0-0.4-0.4-0.6-0.8-0.5
    c-0.1,0.1-0.2,0.2-0.3,0.3c-0.1,0.2,0,0.3-0.1,0.4C16.9,27.4,16.9,27.4,17.2,27.5z"/>
  <path  d="M19.2,28.2c0,0.2,0.2,0.3,0.3,0.3c0.1,0,0.2,0,0.3,0c0.1,0,0.2,0,0.2,0c0.2,0,0.4-0.3,0.3-0.5
    c-0.1-0.2-0.2-0.4-0.3-0.6c-0.1-0.1-0.2-0.2-0.4-0.1c-0.4,0.1-0.5,0.4-0.4,0.8C19.1,28.1,19.2,28.2,19.2,28.2z"/>
  <path  d="M19.2,26.8c0-0.1-0.1-0.2-0.1-0.3c-0.1-0.3-0.3-0.4-0.5-0.3c-0.3,0.1-0.5,0.3-0.5,0.6c0,0,0,0.1,0,0.2
    c0.1,0.4,0.2,0.5,0.6,0.5c0,0,0,0,0,0C19.1,27.4,19.3,27.1,19.2,26.8z"/>
  <path  d="M20.8,28c0.2-0.1,0.5-0.3,0.5-0.7c-0.1-0.1-0.3-0.3-0.4-0.5c-0.1-0.1-0.3-0.1-0.4,0c-0.4,0.3-0.4,0.4-0.2,0.9
    c0,0,0,0,0,0.1C20.4,28,20.6,28,20.8,28z"/>
  <path  d="M29.1,22.4c-0.1-0.2-0.2-0.4-0.3-0.6c-0.1-0.1-0.3-0.2-0.4-0.1c-0.2,0.1-0.4,0.3-0.6,0.5c0,0,0,0.1,0,0.1
    c0,0.3,0.3,0.7,0.5,0.6C28.6,22.9,28.8,22.6,29.1,22.4C29.1,22.5,29.1,22.4,29.1,22.4z"/>
  <path  d="M19.6,22.1c-0.3-0.3-0.4-0.3-0.7,0c-0.2,0.2-0.2,0.6-0.1,0.6c0.2,0.1,0.4,0.2,0.6,0.2c0.1,0,0.2-0.2,0.3-0.2
    c0,0,0,0,0,0C19.9,22.4,19.7,22.2,19.6,22.1z"/>
  <path  d="M19.7,22.7c-0.1,0.2-0.1,0.3-0.2,0.5c-0.1,0.2,0.2,0.2,0.3,0.3c-0.4,0-0.5,0.1-0.5,0.3c0,0.3,0.1,0.6,0.2,0.6
    c0.2,0.1,0.7-0.1,0.8-0.2c0-0.1,0.1-0.3,0.1-0.4c0-0.1-0.2-0.2-0.2-0.3c0.3,0,0.3-0.1,0.3-0.3c0-0.1,0-0.1,0-0.2
    c0-0.2-0.1-0.4-0.3-0.5C20,22.4,19.9,22.5,19.7,22.7C19.7,22.7,19.8,22.7,19.7,22.7C19.7,22.7,19.7,22.7,19.7,22.7
    C19.7,22.7,19.7,22.7,19.7,22.7C19.7,22.7,19.7,22.7,19.7,22.7z"/>
  <path  d="M19.2,19.7c0,0.4,0.2,0.6,0.4,0.7c0.3,0.1,0.4,0,0.5-0.2c0.1,0.1,0.1,0.2,0.3,0.2c0.1,0,0.3,0,0.5,0
    c0.3,0,0.4-0.4,0.3-0.6c-0.2-0.3-0.6-0.3-0.9-0.1c-0.1-0.2-0.4-0.4-0.6-0.3C19.3,19.4,19.2,19.5,19.2,19.7z"/>
  <path  d="M21.9,19.1c0.2,0,0.7-0.3,0.7-0.5c0-0.3-0.3-0.6-0.6-0.6c-0.2,0-0.5,0.4-0.5,0.6
    C21.5,18.8,21.8,19.1,21.9,19.1z"/>
  <path  d="M20.4,18.3c-0.1,0-0.2,0-0.2,0c-0.5,0-0.5,0-0.5,0.5c0,0.1,0,0.2,0,0.2c0.1,0.3,0.4,0.5,0.6,0.3
    c0.2-0.1,0.3-0.3,0.3-0.5C20.8,18.5,20.7,18.3,20.4,18.3z"/>
  <path  d="M21.1,18.6c-0.3,0-0.5,0.2-0.5,0.6c0,0.1,0.3,0.4,0.5,0.4c0.1,0,0.5-0.3,0.5-0.5
    C21.7,18.9,21.4,18.6,21.1,18.6z"/>
  <path  d="M18.5,21.8c-0.1,0-0.1-0.1-0.2-0.1c-0.2-0.2-0.4-0.2-0.5,0.1c-0.1,0.1-0.1,0.3-0.2,0.4c-0.1,0.1,0,0.2,0.1,0.3
    c0.2,0.1,0.4,0.1,0.6,0.2c0.2,0.1,0.3,0,0.4-0.2C18.7,22.2,18.7,22,18.5,21.8C18.5,21.8,18.5,21.8,18.5,21.8L18.5,21.8
    C18.5,21.8,18.5,21.8,18.5,21.8C18.5,21.8,18.5,21.8,18.5,21.8C18.5,21.8,18.5,21.8,18.5,21.8L18.5,21.8z"/>
  <path  d="M18.3,24.7c0,0.1,0.1,0.2,0.1,0.2c0.3,0,0.6-0.1,0.8-0.2c0.1,0,0.1-0.1,0.1-0.2c0.1-0.3-0.2-0.6-0.6-0.6
    c-0.5,0-0.5,0-0.5,0.5C18.3,24.5,18.3,24.6,18.3,24.7z"/>
  <path  d="M19,23.8c0.3,0,0.4-0.1,0.5-0.4c0.1-0.2,0-0.4-0.3-0.5c-0.1,0-0.1-0.1-0.2-0.1c-0.4-0.1-0.5-0.1-0.5,0.4
    c0,0,0,0.1,0,0.1c-0.1,0.4,0,0.4,0.4,0.4c0,0,0.1,0,0.1,0c0,0,0,0,0,0C18.9,23.8,18.9,23.8,19,23.8z"/>
  <path  d="M20.3,24.4c-0.2,0-0.4,0.1-0.5,0.1c-0.2,0-0.2,0.2-0.2,0.3c0.1,0.2,0.2,0.3,0.2,0.5c0.1,0.1,0.2,0.2,0.3,0.1
    c0.2-0.1,0.3-0.2,0.5-0.3c0.1-0.1,0.1-0.2,0.1-0.2C20.7,24.7,20.5,24.4,20.3,24.4z"/>
  <path  d="M21.5,24.2c0-0.4-0.2-0.5-0.5-0.5c-0.4,0-0.5,0.1-0.5,0.4c0,0.3,0.2,0.5,0.4,0.5
    C21.1,24.7,21.5,24.4,21.5,24.2z"/>
  <path  d="M23.9,21.8c0,0.2-0.1,0.3,0,0.5c0,0.1,0.1,0.2,0.2,0.2c0.1,0,0.3,0,0.4-0.1c0.2-0.1,0.3-0.3,0.2-0.5
    c0,0,0-0.1-0.1-0.1c0,0-0.1-0.1-0.1-0.1c-0.1-0.2-0.3-0.3-0.5-0.1l0,0c0,0,0,0,0,0l0,0c0,0,0,0,0,0C24,21.6,23.9,21.7,23.9,21.8z"
    />
  <path  d="M23.9,24.6c0.2,0.1,0.4,0,0.6-0.1c0.2-0.1,0.1-0.3,0.1-0.4c0-0.1,0-0.1,0-0.2c-0.1-0.1-0.1-0.2-0.2-0.2
    c-0.4-0.1-0.4-0.1-0.6,0.2c0,0,0,0,0,0l0,0c0,0,0,0,0,0c0-0.2,0-0.3-0.2-0.3c-0.2,0-0.4-0.2-0.6,0c-0.3,0.3-0.3,0.4,0,0.7
    c0,0,0.1,0.1,0.1,0.1c0.2,0.2,0.5,0.1,0.6-0.2c0-0.1,0.1-0.2,0.1-0.3l0,0c0,0.1,0,0.2,0,0.4C23.7,24.3,23.7,24.5,23.9,24.6z"/>
  <path  d="M20,21.1c0.1-0.2,0-0.7-0.2-0.7c-0.2,0-0.4,0-0.5,0c-0.1,0.1-0.2,0.3-0.3,0.4c-0.2-0.1-0.4-0.1-0.5,0
    c-0.4,0.4-0.4,0.5,0,0.8c0,0,0,0,0,0c0,0,0.1,0,0.1,0c0.2,0.2,0.4,0,0.6-0.1c0.1-0.1,0.1-0.2,0.2-0.4C19.5,21.5,19.9,21.3,20,21.1z
    "/>
  <path  d="M22.1,23.4c-0.3-0.2-0.6-0.1-0.6,0.3c0,0.1,0,0.2,0,0.3c0.1,0.2,0.1,0.3,0.3,0.4c0.1,0,0.5-0.3,0.6-0.4
    c0.1-0.2-0.1-0.2-0.2-0.4c0,0,0,0,0,0c0,0,0,0,0,0c0,0,0,0,0,0C22.2,23.5,22.1,23.5,22.1,23.4z"/>
  <path  d="M30.5,22.2c-0.7,0.2-0.9,0.6-0.6,1.2c0,0,0,0.1,0,0.1c0.1,0,0.1,0.1,0.2,0.1c0.3-0.1,0.6-0.2,0.9-0.3
    c0.1,0,0.1-0.2,0.1-0.3c-0.1-0.3-0.2-0.5-0.4-0.8C30.7,22.3,30.5,22.2,30.5,22.2z"/>
  <path  d="M25.6,21.6c0-0.1,0.2-0.3,0-0.4c-0.2-0.1-0.4-0.3-0.6-0.3c-0.4,0-0.5,0.4-0.3,0.7c0,0,0,0.1,0.1,0.1
    c0.1,0.1,0.3,0.2,0.4,0.2C25.3,22,25.5,21.8,25.6,21.6z"/>
  <polygon  points="24.7,21.8 24.7,21.8 24.7,21.8 24.7,21.8 24.7,21.8 	"/>
  <path  d="M25.1,18.7C25,18,25,18,24.4,18.2c-0.4,0.2-0.5,0.5-0.1,0.8c0.1,0.1,0.3,0.1,0.4,0.1c-0.1,0-0.3,0-0.4,0.2
    c-0.1,0.1-0.1,0.2-0.1,0.3c0,0.1,0.1,0.3,0.2,0.4c-0.4,0.1-0.5,0.6-0.2,0.9c-0.3-0.1-0.5-0.4-0.8-0.1c-0.1-0.3-0.2-0.3-0.5-0.2
    c-0.3,0.1-0.4,0.1-0.4,0.5c0,0.3,0.1,0.4,0.4,0.4c0.2,0,0.3-0.1,0.4-0.2c0,0.1,0.1,0.2,0.2,0.3c-0.5-0.1-0.6,0-0.5,0.5c0,0,0,0,0,0
    c0-0.1-0.1-0.2-0.1-0.2c-0.1-0.3-0.3-0.4-0.6-0.2c-0.1-0.2-0.2-0.3-0.5-0.3c-0.1,0-0.1,0-0.2-0.1c-0.2-0.4-0.3-0.4-0.7-0.3
    c0,0-0.1,0.1-0.1,0.1c-0.2,0.1-0.3,0.3-0.1,0.4c-0.1,0.1-0.2,0.2-0.3,0.3c0.2-0.4,0.2-0.6-0.1-0.7c-0.1,0-0.3,0-0.5,0.1
    c-0.4,0.2-0.4,0.3-0.1,0.6c0.4,0.4,0.4,0.4,0.7,0c0,0.1-0.2,0.3-0.1,0.4c0.2,0.2,0.5,0.3,0.8,0.1c0.2-0.2,0.2-0.4,0-0.7
    c0.1,0,0.2,0,0.3,0c0,0.2,0,0.4,0.3,0.5c-0.3,0-0.3,0.2-0.3,0.4c-0.2-0.1-0.5-0.2-0.6,0c-0.1,0.2-0.2,0.5-0.1,0.7
    c0.1,0.2,0.4,0.1,0.6,0.1c0.3,0,0.3-0.2,0.3-0.5c0.2,0.3,0.3,0.1,0.5,0c0.1,0,0.1-0.1,0.2-0.1c-0.1,0.1-0.1,0.3,0,0.4
    c0,0,0.1,0.1,0.1,0.2c0.1,0,0.3,0.2,0.4,0.1c0.1-0.1,0.4-0.3,0.3-0.5c-0.1-0.2-0.1-0.5,0-0.7c0,0,0-0.1,0-0.1
    c0.1,0.3,0.1,0.3,0.4,0.3c0.1,0,0.1,0,0.2,0c0,0,0,0,0,0c0.1-0.1,0.2-0.1,0.3-0.2c0-0.2,0-0.4-0.1-0.5c0.1-0.1,0.3-0.2,0.5-0.3
    c0.2-0.2,0.2-0.3,0-0.5c0.3,0.2,0.3,0.2,0.6-0.1c0.1-0.1,0.2-0.2,0.2-0.3c0-0.1-0.1-0.3-0.1-0.4c0.2,0,0.4-0.1,0.4-0.4
    c0-0.2,0.1-0.5-0.2-0.6c-0.1,0-0.2,0-0.3-0.1C25,19.2,25.2,19,25.1,18.7z M22.1,23c0-0.1,0-0.2,0-0.3c0-0.2-0.1-0.4-0.3-0.4
    c0.1-0.1,0.2-0.1,0.3-0.2c0,0.3,0.1,0.5,0.3,0.6C22.3,22.8,22.2,22.9,22.1,23z"/>
  <polygon  points="20.9,21.2 20.9,21.2 20.9,21.2 20.9,21.2 20.9,21.2 20.9,21.2 	"/>
  <path  d="M21,20.9C21,20.9,21,20.9,21,20.9c0.3,0.3,0.5,0.3,0.7,0c0,0,0.1-0.1,0.1-0.1c0,0.1-0.1,0.2-0.1,0.3
    c0,0.1,0,0.1,0,0.2c0,0.2,0.4,0.4,0.5,0.4c0.2,0,0.2-0.2,0.3-0.4c0,0,0-0.1,0-0.1c0.1-0.2-0.1-0.4-0.3-0.5c-0.2-0.1-0.2,0-0.4,0.1
    c0.2-0.2,0.1-0.3-0.1-0.4c0.4,0,0.6-0.3,0.5-0.6c0-0.1-0.1-0.1-0.1-0.2c-0.1-0.1-0.3-0.3-0.5-0.1c-0.1,0.1-0.3,0.2-0.3,0.3
    c0,0.1,0,0.3,0,0.4c-0.2,0-0.3,0.1-0.3,0.3C21,20.5,21,20.7,21,20.9C21,20.9,21,20.9,21,20.9C21,20.8,21,20.8,21,20.9
    c-0.1-0.4-0.4-0.5-0.8-0.4c-0.1,0-0.2,0.3-0.2,0.5c0.1,0.3,0.4,0.5,0.6,0.2c0,0,0.1-0.1,0.1-0.1C20.9,21.1,21,21,21,20.9L21,20.9z"
    />
  <path  d="M22.7,19.8c0.2,0,0.3-0.1,0.3-0.2c0.1-0.2,0-0.6-0.2-0.7c-0.2-0.1-0.4,0-0.6,0.1c0,0,0,0-0.1,0
    c-0.2,0.1-0.2,0.3-0.1,0.4l0,0c0,0,0,0,0,0c0,0,0,0,0,0C22.2,19.7,22.5,19.8,22.7,19.8z"/>
  <path  d="M16.9,19.4c-0.1,0-0.2,0.1-0.3,0.2c-0.2,0.3,0.2,0.8,0.6,0.9c0.1-0.1,0.3-0.2,0.4-0.3c0.2-0.2,0.3-0.2,0.1-0.5
    C17.4,19.2,17.4,19.2,16.9,19.4z"/>
  <path  d="M21.9,24.9c0-0.2-0.1-0.4-0.3-0.4c-0.4,0-0.7,0.2-0.7,0.5c0,0.3,0.3,0.6,0.6,0.6
    C21.6,25.6,21.9,25.2,21.9,24.9z"/>
  <path  d="M22.3,26.3c0.3,0,0.3-0.4,0.4-0.6c0.1-0.2,0-0.3-0.1-0.4c-0.1-0.1-0.2-0.1-0.3-0.1c-0.2,0-0.7,0.4-0.7,0.6
    c0,0,0,0.1,0,0.1C21.8,26,22,26.3,22.3,26.3z"/>
  <path  d="M21.1,26.2c0.1-0.1,0.2-0.2,0.2-0.3c0-0.1,0-0.1-0.1-0.1c-0.2-0.4-0.5-0.5-0.9-0.2c0,0-0.1,0.1-0.1,0.1
    c-0.1,0.1-0.2,0.2-0.1,0.3c0,0.1,0.1,0.1,0.1,0.2C20.5,26.6,20.7,26.6,21.1,26.2z"/>
  <path  d="M22.6,24c-0.2,0.2-0.5,0.3-0.6,0.5c-0.1,0.2,0.3,0.5,0.6,0.6c0.1,0,0.5-0.4,0.4-0.6
    C22.9,24.4,22.7,24.2,22.6,24z"/>
  <path  d="M19.3,26.8c0,0.2,0.2,0.3,0.4,0.3c0.3,0,0.8-0.3,0.7-0.5c-0.1-0.2-0.3-0.5-0.4-0.7c0,0-0.1,0-0.1,0
    c-0.2,0.1-0.4,0.2-0.6,0.3c-0.1,0.1,0,0.3,0,0.4C19.3,26.7,19.3,26.7,19.3,26.8z"/>
  <path  d="M24.9,22.8c0-0.1-0.1-0.2-0.1-0.2c0,0-0.1-0.1-0.1-0.1C24.4,22.4,24,22.6,24,23c0,0.2,0,0.4,0.3,0.5
    c0.2,0.1,0.5,0,0.6-0.2C25,23.2,24.9,23,24.9,22.8z"/>
  <path  d="M26.1,20.4c0-0.1-0.1-0.2-0.1-0.2c-0.2-0.1-0.4-0.1-0.7-0.1c-0.1,0.1-0.2,0.2-0.3,0.3
    c-0.1,0.2-0.1,0.4,0.1,0.5c0.1,0.1,0.3,0.2,0.4,0.2c0.2,0.1,0.3,0.1,0.4-0.1C26.1,20.8,26.1,20.6,26.1,20.4z"/>
  <path  d="M26.1,22.5c0.2-0.2,0.5-0.4,0.6-0.7c0.1-0.2-0.4-0.5-0.7-0.5c-0.2,0-0.4,0.3-0.4,0.6
    C25.6,22.1,26.1,22.6,26.1,22.5z"/>
  <path  d="M17.8,26.2c0.3,0.1,0.5,0,0.7-0.2c0.2-0.1,0.1-0.3,0.1-0.5c0-0.1-0.1-0.3-0.1-0.4c0-0.1-0.1-0.1-0.2-0.2
    c-0.4-0.1-0.7,0.1-0.8,0.6c0,0,0,0.1,0,0.1C17.4,25.9,17.5,26.1,17.8,26.2z"/>
  <path  d="M23,22.9c0,0.2,0,0.4,0.3,0.5c0.5,0.2,0.6,0.1,0.6-0.4c0-0.4,0-0.5-0.5-0.4c-0.1,0-0.1,0.1-0.2,0.1
    C23.2,22.7,23,22.7,23,22.9z"/>
  <path  d="M25.4,23.2c0.2,0,0.6-0.4,0.6-0.5c0-0.2-0.5-0.6-0.7-0.6c-0.2,0-0.4,0.2-0.4,0.4
    C24.9,22.8,25.1,23.2,25.4,23.2z"/>
  <path  d="M18.8,19.5c-0.2,0-0.7,0.3-0.7,0.5c0,0.2,0.4,0.7,0.6,0.7c0.3,0,0.5-0.2,0.5-0.4C19.2,19.9,19,19.5,18.8,19.5z
    "/>
  <path  d="M18.3,18.6c-0.4,0-0.8,0.2-0.8,0.5c0,0.2,0.3,0.7,0.5,0.7c0.2,0,0.7-0.4,0.7-0.5C18.7,19,18.5,18.6,18.3,18.6z
    "/>
  <path  d="M18,24.9c0.3-0.1,0.3-0.3,0.2-0.5c0-0.1,0-0.3,0-0.4c0-0.1-0.1-0.2-0.2-0.2c-0.6-0.1-0.7,0-0.8,0.6
    c0,0.1,0,0.1,0,0.2c0,0.1,0,0.1,0.1,0.2C17.4,25,17.7,25,18,24.9z"/>
  <path  d="M26.1,24c0.1-0.1,0.3-0.1,0.4-0.2c0.3-0.2,0.4-0.4,0.1-0.6c-0.4-0.5-0.4-0.5-0.9,0c-0.1,0.1-0.1,0.2-0.1,0.3
    c0.1,0.2,0.2,0.4,0.3,0.6C26,24,26,24,26.1,24z"/>
  <path  d="M17.3,23c-0.2,0.5,0,0.7,0.5,0.7c0.4,0,0.4,0,0.4-0.4c0,0,0-0.1,0-0.1c0.1-0.4,0.1-0.4-0.3-0.5
    C17.5,22.5,17.5,22.6,17.3,23z"/>
  <path  d="M18,21.3c0.2-0.1,0.3-0.4,0.5-0.6c-0.2-0.2-0.3-0.4-0.5-0.6c0,0-0.1,0-0.2,0c-0.2,0.1-0.4,0.2-0.5,0.4
    c-0.2,0.2-0.2,0.3,0,0.5c0.1,0.1,0.2,0.2,0.3,0.2C17.7,21.3,17.9,21.4,18,21.3z"/>
  <path  d="M16.6,21.5c-0.1,0.2-0.1,0.4,0.1,0.5c0.1,0.1,0.3,0.2,0.4,0.2c0.3,0,0.7-0.6,0.6-0.8c0,0,0,0,0,0
    c-0.2-0.1-0.4-0.4-0.6-0.4C16.9,21.1,16.8,21.3,16.6,21.5z"/>
  <path  d="M16.7,23.4C16.7,23.4,16.7,23.4,16.7,23.4c0.3,0,0.4-0.1,0.5-0.4c0-0.1,0-0.1,0.1-0.2c0.1-0.4,0.1-0.4-0.3-0.6
    c-0.3-0.1-0.4-0.1-0.6,0.1c-0.3,0.4-0.3,0.5-0.1,0.8C16.4,23.3,16.5,23.4,16.7,23.4z"/>
  <path  d="M16,24.1c-0.1,0.2,0,0.3,0.1,0.4c0.1,0.1,0.3,0.2,0.4,0.2c0.3,0,0.5,0,0.5-0.3c0-0.2,0.1-0.4,0.1-0.6
    c0-0.1-0.1-0.3-0.2-0.3c-0.4-0.2-0.7-0.1-0.9,0.3C16.1,24,16.1,24.1,16,24.1z"/>
  <path  d="M16.3,20.3c-0.2,0.1-0.4,0.2-0.5,0.3c0,0-0.1,0.1-0.1,0.2c0,0.2,0.2,0.5,0.4,0.6c0.3,0.1,0.4,0.1,0.6-0.1
    c0.1-0.1,0.2-0.2,0.2-0.3c0-0.1,0.1-0.1,0.1-0.2C17,20.6,16.6,20.2,16.3,20.3C16.4,20.3,16.3,20.3,16.3,20.3z"/>
  <path  d="M15.1,22.2c0.1,0.2,0.2,0.4,0.3,0.5c0.1,0.1,0.4,0.1,0.5,0.1c0.3-0.2,0.4-0.5,0.5-0.8c0-0.1,0-0.1,0-0.1
    c-0.1-0.2-0.4-0.4-0.6-0.4C15.6,21.5,15.1,22.1,15.1,22.2z"/>
  <path  d="M19.1,26c0.3,0,0.6-0.3,0.6-0.5c0-0.2-0.3-0.7-0.4-0.7c-0.4,0-0.7,0.2-0.7,0.4C18.5,25.7,18.8,26,19.1,26z"/>
  <path  d="M19.2,14.2c0.1,0,0.2,0,0.2-0.1c0.2-0.2,0.4-0.4,0.5-0.6c0,0,0-0.2,0-0.3c-0.2-0.2-0.4-0.4-0.5-0.5
    c-0.1-0.1-0.3-0.1-0.4,0c-0.2,0.2-0.3,0.4-0.5,0.7c0,0,0,0.1,0,0.2C18.8,13.8,19,14,19.2,14.2z"/>
  <path  d="M15.1,16.8c0.1,0,0.1,0,0.2,0c0.3,0,0.4,0,0.4-0.3c0-0.2,0-0.3,0.1-0.5c0-0.2,0-0.3-0.2-0.3
    c-0.2,0-0.4-0.1-0.7-0.1c-0.3,0-0.4,0-0.4,0.3c0,0.1,0,0.2,0,0.3C14.5,16.8,14.5,16.8,15.1,16.8z"/>
  <path  d="M16.2,15.6c0.2,0.1,0.5,0.2,0.8,0.2c0.1-0.1,0.2-0.1,0.3-0.2c0.1-0.2,0.2-0.3,0.2-0.5c0.1-0.2,0-0.3-0.2-0.4
    c-0.2-0.1-0.4-0.2-0.7-0.3c-0.1-0.1-0.3,0-0.3,0.1c-0.1,0.3-0.2,0.5-0.2,0.8C16.1,15.4,16.1,15.6,16.2,15.6z"/>
  <path  d="M15.1,15.3c0.2,0,0.4,0.1,0.6,0.1c0.1,0,0.2,0,0.3-0.1c0.1-0.3,0.2-0.5,0.2-0.8c0-0.1,0-0.2-0.1-0.2
    c-0.2-0.1-0.4-0.2-0.7-0.3c-0.3-0.1-0.4,0.1-0.5,0.3c0,0.2-0.1,0.4-0.1,0.6C14.8,15.2,14.9,15.3,15.1,15.3z"/>
  <path  d="M16.8,14.3c0.2,0.1,0.5,0.2,0.7,0.3c0.1,0,0.2,0,0.2-0.1c0.1-0.2,0.3-0.4,0.4-0.7c0-0.1,0-0.2-0.1-0.3
    c-0.2-0.2-0.4-0.3-0.7-0.4c-0.1,0-0.3,0-0.3,0.1c-0.2,0.3-0.3,0.6-0.4,0.9C16.7,14.2,16.7,14.3,16.8,14.3z"/>
  <path  d="M18.2,15.1c0.5,0.2,0.5,0.2,0.8-0.2c0.1-0.1,0.2-0.3,0.2-0.4c-0.1-0.1-0.1-0.2-0.2-0.2
    c-0.1-0.1-0.2-0.1-0.3-0.2c-0.5-0.3-0.5-0.3-0.8,0.2C17.7,14.8,17.7,14.9,18.2,15.1z"/>
  <path  d="M14.9,18.1c0.1,0,0.1,0,0.2,0c0.6-0.1,0.7-0.2,0.6-0.8c0-0.2-0.1-0.3-0.3-0.3c-0.1,0-0.3,0-0.4,0c0,0,0,0,0,0
    c-0.1,0-0.1,0-0.2,0c-0.3,0-0.4,0-0.4,0.4c0,0.2,0,0.3,0,0.5C14.5,18.1,14.6,18.1,14.9,18.1z"/>
  <path  d="M11.6,22.5c0-0.1,0-0.2,0-0.4C11.6,22.3,11.6,22.4,11.6,22.5z"/>
  <path  d="M13.4,18.4c-0.2,0-0.2,0.1-0.2,0.3c0.1,0.3,0.2,0.5,0.3,0.8c0,0.1,0.2,0.1,0.2,0.1c0.3-0.1,0.5-0.2,0.7-0.3
    c0.1,0,0.1-0.1,0.1-0.1c0-0.3-0.1-0.5-0.1-0.7c0-0.1-0.1-0.2-0.2-0.2C14,18.3,13.7,18.3,13.4,18.4z"/>
  <path  d="M12.6,21.7c0.1,0,0.1-0.2,0.1-0.3c-0.1-0.2-0.3-0.5-0.4-0.7c0-0.1-0.1-0.1-0.2-0.1c-0.2,0.1-0.3,0.1-0.5,0.2
    c0,0.3,0,0.6,0,0.8c0,0.1,0,0.2,0,0.3c0.1,0.1,0.2,0.2,0.2,0.2c0.1,0,0.1,0,0.2,0C12.2,22,12.4,21.9,12.6,21.7z"/>
  <path  d="M12.5,20c0.2-0.1,0.5-0.1,0.7-0.2c0.1,0,0.1-0.2,0.1-0.2c0-0.2-0.1-0.5-0.2-0.7c0-0.1-0.1-0.1-0.2-0.2
    c-0.3,0-0.6,0.1-0.8,0.1c-0.1,0-0.2,0.1-0.2,0.2c0,0.1,0,0.1,0,0.2c0,0,0,0.1,0,0.1c0.1,0.2,0.2,0.5,0.3,0.7
    C12.3,20,12.4,20,12.5,20z"/>
  <path  d="M13.2,17.7c0.1,0.5,0.1,0.5,0.6,0.5c0.6,0,0.6,0,0.6-0.7c0-0.7,0-0.6-0.6-0.6c-0.1,0-0.2,0-0.3,0
    c-0.3,0-0.4,0.2-0.3,0.4C13.1,17.5,13.1,17.6,13.2,17.7z"/>
  <path  d="M20,13.2c0.1,0.1,0.2,0.1,0.3,0c0.2-0.2,0.4-0.3,0.6-0.5c0.1-0.1,0.1-0.2,0-0.3c-0.1-0.2-0.2-0.4-0.4-0.5
    c-0.1-0.1-0.2-0.1-0.3-0.2c-0.1,0.1-0.3,0.1-0.3,0.2c-0.1,0.2-0.3,0.3-0.4,0.5c-0.1,0.1-0.1,0.2,0,0.3C19.7,12.9,19.9,13,20,13.2z"
    />
  <path  d="M26.2,16.1c0,0.1,0.1,0.2,0.2,0.3c0.1,0,0.2,0.1,0.4,0.1c0.3,0,0.4-0.1,0.4-0.3c0-0.2,0.1-0.4,0.1-0.6
    c0-0.2,0-0.2-0.2-0.3c-0.2,0-0.3-0.1-0.5-0.1c-0.4,0-0.5,0.1-0.5,0.5C26.2,15.8,26.2,15.9,26.2,16.1z"/>
  <path  d="M25.2,13.7c0.1,0,0.3,0,0.4-0.1c0.4-0.1,0.4-0.1,0.4-0.5c0-0.2-0.1-0.4-0.1-0.6c-0.1-0.2-0.2-0.2-0.4-0.2
    c-0.2,0.1-0.5,0.1-0.7,0.2c-0.1,0-0.2,0.1-0.2,0.3c0,0.2,0.1,0.4,0.1,0.5C24.9,13.7,25,13.8,25.2,13.7z"/>
  <path  d="M25.8,13.9c-0.2,0-0.5,0.1-0.7,0.1c-0.1,0-0.2,0.1-0.2,0.2c0,0.2,0.1,0.4,0.1,0.6c0,0.2,0.2,0.3,0.4,0.3
    c0.1,0,0.2,0,0.3,0c0.4,0,0.5-0.1,0.5-0.5c0-0.2,0-0.4-0.1-0.5C26.1,13.9,26,13.8,25.8,13.9z"/>
  <path  d="M27.5,15.8c-0.1,0.7-0.1,0.7,0.6,0.9c0,0,0.1,0,0.1,0c0.2,0.1,0.3,0,0.3-0.2c0.1-0.2,0.2-0.5,0.2-0.7
    c0.1-0.2,0-0.3-0.2-0.3c-0.3-0.1-0.5-0.1-0.8-0.2c-0.2,0-0.3,0.1-0.3,0.2C27.5,15.6,27.5,15.7,27.5,15.8z"/>
  <path  d="M26.4,14.8c0,0.1,0.1,0.2,0.2,0.2c0.2,0,0.5,0.1,0.7,0.1c0.1,0,0.2-0.1,0.2-0.2c0-0.2,0.1-0.5,0.1-0.7
    c0-0.2-0.1-0.3-0.3-0.3c-0.3,0-0.5,0-0.8,0c-0.1,0-0.1,0.1-0.2,0.2c0,0.1,0,0.1,0,0.2c0,0,0,0,0,0C26.3,14.5,26.3,14.6,26.4,14.8z"
    />
  <path  d="M23.8,14.1c0.3-0.1,0.5-0.1,0.7-0.2c0.1,0,0.1-0.2,0.1-0.3c0-0.2-0.1-0.5-0.2-0.7c0-0.2-0.2-0.3-0.3-0.2
    c-0.2,0.1-0.5,0.2-0.7,0.3c-0.1,0-0.1,0.2-0.1,0.2c0.1,0.2,0.2,0.5,0.3,0.7C23.7,14,23.8,14.1,23.8,14.1z"/>
  <path  d="M23.9,14.3c-0.2,0.1-0.3,0.2-0.2,0.4c0.1,0.2,0.1,0.3,0.2,0.5c0.1,0.2,0.2,0.3,0.4,0.2c0.6,0,0.7-0.2,0.6-0.7
    c0-0.1-0.1-0.3-0.1-0.4c0-0.1-0.1-0.2-0.2-0.2C24.3,14.2,24.1,14.2,23.9,14.3z"/>
  <path  d="M20.5,13.7c0.2,0.2,0.3,0.3,0.5,0.5c0.1,0,0.2,0.1,0.2,0c0.2-0.1,0.4-0.2,0.5-0.3c0.1,0,0.1-0.1,0.1-0.2
    c0-0.1,0-0.1,0-0.1c-0.2-0.3-0.4-0.5-0.6-0.8c0,0-0.2,0-0.2,0c-0.2,0.1-0.4,0.3-0.6,0.5C20.4,13.4,20.3,13.5,20.5,13.7z"/>
  <path  d="M21.9,13.3c0.1,0.1,0.2,0.2,0.4,0.1c0.2-0.1,0.4-0.2,0.6-0.3c0.1,0,0.1-0.1,0.2-0.2c-0.2-0.3-0.3-0.6-0.5-0.9
    c0-0.1-0.2-0.1-0.3,0c-0.2,0.1-0.5,0.3-0.7,0.5c-0.1,0.1-0.1,0.2,0,0.3C21.7,13,21.8,13.2,21.9,13.3z"/>
  <path  d="M22.3,13.6c-0.2,0.1-0.2,0.2-0.1,0.4c0.1,0.1,0.2,0.3,0.3,0.4c0.2,0.2,0.7,0.2,0.9,0c0-0.1,0.1-0.1,0.1-0.3
    c-0.1-0.3-0.2-0.5-0.4-0.8c0,0-0.2-0.1-0.2,0C22.7,13.4,22.5,13.5,22.3,13.6z"/>
  <path  d="M12.8,23.4c0.2-0.1,0.4-0.3,0.5-0.4c0,0,0.1-0.1,0.1-0.1c0-0.1,0-0.1,0-0.1c-0.2-0.2-0.3-0.5-0.5-0.7
    c0-0.1-0.2-0.1-0.2-0.1c-0.3,0.1-0.6,0.3-0.7,0.5c0,0.1,0,0.2,0,0.3c0.2,0.2,0.4,0.4,0.6,0.6C12.6,23.4,12.7,23.4,12.8,23.4z"/>
  <path  d="M22.1,30.3c0.1-0.1,0.2-0.2,0.1-0.3c-0.1-0.2-0.3-0.4-0.4-0.6c0-0.1-0.1-0.1-0.2-0.1c-0.3,0.1-0.5,0.2-0.7,0.3
    c-0.1,0-0.1,0.2-0.1,0.2c0.1,0.2,0.2,0.5,0.3,0.7c0.1,0.2,0.2,0.2,0.4,0.1C21.7,30.6,21.9,30.4,22.1,30.3z"/>
  <path  d="M28.4,28.9c0.1-0.2,0.1-0.5,0.2-0.8c-0.1-0.1-0.1-0.2-0.2-0.2c-0.2-0.1-0.5-0.1-0.7-0.2
    c-0.1,0-0.2,0.1-0.3,0.1c-0.1,0.2-0.2,0.4-0.3,0.7c-0.1,0.2,0,0.3,0.1,0.3c0.2,0.1,0.5,0.2,0.7,0.3C28.2,29.2,28.4,29.1,28.4,28.9z
    "/>
  <path  d="M27.2,27.5c-0.3-0.1-0.6-0.2-0.8-0.2c-0.1,0-0.3,0.3-0.4,0.5c0,0,0,0.1,0,0.1c-0.1,0.2-0.1,0.4,0.1,0.4
    c0.2,0.1,0.5,0.2,0.7,0.3c0.1,0,0.2,0,0.2-0.1c0.1-0.3,0.2-0.5,0.3-0.8C27.3,27.7,27.3,27.6,27.2,27.5z"/>
  <path  d="M28.7,28.2c0,0.2-0.1,0.4-0.1,0.6c0,0.1,0,0.2,0,0.2c0.3-0.3,0.6-0.6,0.9-0.9c-0.1,0-0.3-0.1-0.4-0.1
    C28.9,28,28.8,28,28.7,28.2z"/>
  <path  d="M26,28.4c-0.1,0-0.1,0-0.2,0.1c-0.1,0.2-0.3,0.4-0.4,0.6c0,0.1,0,0.2,0.1,0.3c0.2,0.2,0.4,0.3,0.7,0.5
    c0.1,0.1,0.2,0,0.3-0.1c0.1-0.3,0.3-0.5,0.4-0.8c0,0,0-0.2-0.1-0.2C26.5,28.7,26.3,28.6,26,28.4z"/>
  <path  d="M29.5,25.1c0.1,0,0.3-0.1,0.4-0.1c0.2,0,0.2-0.1,0.2-0.3c-0.1-0.3-0.1-0.5-0.2-0.8c0-0.2-0.1-0.2-0.3-0.2
    c-0.2,0.1-0.3,0.1-0.5,0.2c-0.3,0.1-0.4,0.1-0.4,0.5C28.8,25.1,29,25.3,29.5,25.1z"/>
  <path  d="M26.2,30.3c-0.1,0.2-0.2,0.3-0.3,0.5c0.3-0.1,0.6-0.3,0.9-0.5c-0.1-0.1-0.2-0.1-0.3-0.1
    C26.5,30.2,26.3,30.3,26.2,30.3z"/>
  <path  d="M29.6,25.3C29,25.4,29,25.4,29,25.9c0,0.6-0.1,0.6,0.6,0.6c0.6,0,0.7-0.1,0.6-0.7
    C30.2,25.2,30.2,25.2,29.6,25.3z"/>
  <path  d="M25.6,31c0.2-0.2,0.3-0.5,0.4-0.7c0-0.1,0-0.2-0.1-0.3c-0.2-0.1-0.4-0.3-0.6-0.4c-0.1-0.1-0.2-0.1-0.3,0.1
    c-0.1,0.2-0.3,0.3-0.4,0.5c-0.1,0.1-0.1,0.2,0,0.3c0.2,0.2,0.4,0.3,0.5,0.5c0,0,0.1,0,0.1,0.1C25.4,31.1,25.5,31,25.6,31
    C25.6,31,25.6,31,25.6,31z"/>
  <path  d="M31,23.6c-0.2,0.1-0.5,0.1-0.7,0.2c-0.1,0-0.1,0.2-0.1,0.3c0,0.2,0.1,0.4,0.1,0.6c0,0.2,0.1,0.3,0.3,0.3
    c0.2,0,0.4-0.1,0.6-0.1c0,0,0.1,0,0.1,0c0.1-0.2,0.1-0.4,0.2-0.6c-0.1-0.2-0.2-0.4-0.3-0.6C31.2,23.6,31,23.5,31,23.6z"/>
  <path  d="M12.6,25.7c-0.1-0.1-0.2-0.1-0.3-0.2c0.1,0.2,0.2,0.5,0.3,0.7c0.1-0.1,0.1-0.3,0.1-0.4
    C12.7,25.8,12.7,25.7,12.6,25.7z"/>
  <path  d="M30.3,26.9c0.1-0.1,0.1-0.2,0.2-0.3C30.4,26.6,30.3,26.7,30.3,26.9z"/>
  <path  d="M30.9,25C30.9,25,30.9,25,30.9,25c-0.7,0.1-0.6,0.1-0.5,0.7c0,0.4,0.1,0.6,0.3,0.6c0.2-0.4,0.4-0.9,0.6-1.3
    C31.1,25,31,25,30.9,25z"/>
  <path  d="M43.3,21.7c0-0.2-0.1-0.4-0.3-0.6c-0.8-0.8-3.9-1.9-7.4-2.2c3.2-1.7,6.5-4.4,6.1-5.5c-0.2-0.5-0.8-0.7-2.1-0.7
    c-1.4,0-3.7,0.3-6,1.1c2.3-2.8,4.3-6.5,3.4-7.4c-0.2-0.2-0.4-0.3-0.7-0.3c-1.1,0-4.1,1.5-6.8,3.7c1.1-3.4,1.5-7.7,0.4-8.2
    c-0.1,0-0.2-0.1-0.3-0.1c-1.1,0-3.6,2.9-5.2,6.1C24.1,4.1,22.9,0,21.7,0c-1.2,0-2.5,4.1-2.8,7.7c-1.7-3.2-4.2-6.1-5.3-6.1
    c-0.1,0-0.2,0-0.3,0c-0.2,0.1-0.4,0.3-0.5,0.5c-0.4,1-0.2,4.3,0.8,7.6C11.1,7.6,8.1,6.1,7,6.1c-0.3,0-0.5,0.1-0.6,0.2
    C6.2,6.5,6.1,6.7,6.1,7c0,1.1,1.4,4.1,3.7,6.8c-2.1-0.7-4.4-1.2-6-1.2c-1.2,0-1.9,0.3-2.2,0.8c-0.1,0.3-0.4,1,2.1,3.1
    c1.1,0.9,2.4,1.7,3.8,2.4C4,19.1,0,20.2,0,21.7c0,1.4,4.1,2.5,7.7,2.8c-1.4,0.7-2.8,1.6-3.9,2.4c-2.6,2-2.2,2.8-2.1,3.1
    c0.2,0.5,0.9,0.8,2.1,0.8c1.3,0,3.5-0.3,6-1.1c-2.4,2.7-4.5,6.3-3.4,7.3c0.2,0.2,0.4,0.3,0.7,0.3c1.2,0,4.1-1.5,6.7-3.7
    c-1.1,3.4-1.7,7.6-0.3,8.2c0.1,0,0.2,0.1,0.3,0.1c1.2,0,3.5-2.8,5.1-6c0.3,3.6,1.3,7.6,2.8,7.6c1.4,0,2.5-4.1,2.8-7.7
    c1.6,3.1,3.8,6.1,5.2,6.1c0.1,0,0.3,0,0.4-0.1c1.3-0.5,0.7-4.7-0.3-8.1c2.4,2.1,5.2,3.7,6.5,3.7c0.4,0,0.6-0.1,0.8-0.3
    c1-1-1.2-4.7-3.5-7.4c2.3,0.7,4.6,1,6.1,1c1.6,0,2-0.3,2.1-0.6c0.1-0.2,0.1-0.4,0-0.7c-0.4-1-2.9-3.2-6-4.8
    C39.3,24.1,43.3,22.9,43.3,21.7z M36,7.3c-0.3,1.2-1.9,4.4-4.4,6.9c-0.2,0.2-0.4,0.4-0.5,0.5c-0.5,0.2-0.9,0.5-1.4,0.7c0,0,0,0,0,0
    c-0.5-0.6-1.1-1.2-1.7-1.7c0,0,0,0,0,0c0.2-0.4,0.4-0.8,0.7-1.3c0.2-0.2,0.4-0.4,0.6-0.6C31.7,9.3,34.8,7.6,36,7.3z M24,11.8
    c0.1-0.4,0.3-0.9,0.5-1.3l0,0c0,0,0-0.1,0-0.1c0.1-0.2,0.2-0.5,0.3-0.7c1.5-3.5,3.8-6.1,4.6-6.8c0.2,1.2-0.1,4.8-1.5,8.1
    c-0.3,0.7-0.6,1.4-1,2.1C26,12.5,25.1,12.1,24,11.8C24,11.8,24,11.8,24,11.8z M21.7,1.4c0.6,1,1.7,4.4,1.7,8c0,0.3,0,0.5,0,0.8
    c-0.2,0.5-0.3,1-0.5,1.5c-0.4,0-0.8-0.1-1.2-0.1c-0.5,0-0.9,0-1.4,0.1c0,0,0.1,0,0.1,0c-0.1-0.5-0.3-0.9-0.4-1.4c0-0.3,0-0.6,0-0.9
    C20,5.6,21.1,2.4,21.7,1.4z M13.9,2.9c1,0.7,3.3,3.4,4.7,6.7c0.1,0.3,0.2,0.6,0.3,0.8c0,0,0,0,0,0h0c0.2,0.5,0.3,0.9,0.4,1.3
    c-1,0.3-2,0.7-2.9,1.2l0,0c0,0,0,0,0,0c0,0,0,0,0,0c-0.3-0.6-0.7-1.3-1-2.1C13.9,7.5,13.7,4.1,13.9,2.9z M7.3,7.3
    c1.2,0.3,4.4,2,6.9,4.4c0.2,0.2,0.4,0.4,0.5,0.6c0.2,0.5,0.5,0.9,0.7,1.4c-0.6,0.5-1.2,1.1-1.7,1.7h0l0,0c0,0,0,0,0,0
    c-0.4-0.2-0.8-0.4-1.2-0.7c-0.2-0.2-0.4-0.4-0.7-0.6C9.1,11.5,7.6,8.4,7.3,7.3z M34,23.4c-0.3,0-0.5,0-0.8,0
    c-0.5-0.2-1-0.3-1.5-0.5c0,0.1,0,0.1,0,0.2c0,0,0,0,0,0c0,0.1,0,0.1,0,0.2c0,0,0,0,0,0c0,0.1,0,0.2,0,0.3c0-0.1,0-0.2,0-0.3
    c0,0-0.1,0-0.1,0c-0.2,0.1-0.3,0.2-0.2,0.4c0.1,0.1,0.1,0.3,0.2,0.4c0,0,0,0,0,0c0.7,0.2,1.4,0.5,2.2,0.8c3.5,1.4,6,3.7,6.7,4.6
    c-0.2,0-0.5,0-0.8,0c-1.6,0-4.5-0.4-7.2-1.5c-0.7-0.3-1.4-0.6-2.1-1c0,0,0,0,0,0c0,0,0,0,0,0c0,0.1-0.1,0.1-0.1,0.2
    c0-0.5,0-0.5-0.6-0.5c-0.1,0-0.2,0-0.3,0c-0.2,0-0.3,0.1-0.4,0.3c0,0.2,0,0.4-0.1,0.6c0,0.2,0,0.3,0.2,0.3c0.2,0,0.3,0.1,0.5,0.1
    c0,0,0,0,0,0c0.4,0.2,0.8,0.4,1.2,0.6c0.2,0.2,0.5,0.4,0.7,0.6c2.8,2.8,4.4,6.1,4.5,7c-1.1-0.1-4.2-1.8-6.9-4.6
    c-0.2-0.2-0.4-0.4-0.5-0.6c-0.2-0.5-0.5-0.9-0.7-1.4c0,0,0.1-0.1,0.1-0.1c0,0,0,0,0,0c0-0.1-0.1-0.2-0.1-0.2
    c-0.2-0.1-0.4-0.2-0.6-0.3C27.1,29,27,29,27,29.1c-0.1,0.2-0.2,0.5-0.3,0.7c0,0.1,0,0.2,0,0.2c0.1,0.1,0.3,0.2,0.4,0.3
    c0,0,0,0-0.1,0c0.4,0.6,0.7,1.3,1,2c1.5,3.7,1.8,7.3,1.5,8.2c-0.8-0.4-3.1-3-4.7-6.9c-0.3-0.7-0.6-1.5-0.8-2.2
    c0.3-0.1,0.7-0.2,1-0.3c0-0.1-0.1-0.2-0.3-0.4c-0.4-0.4-0.4-0.4-0.7,0c-0.5,0.5-0.6,0.4-0.3,0.8c-0.1,0-0.1,0-0.2,0
    c-0.3-0.3-0.4-0.3-0.8,0.1c0.1,0,0.2,0,0.2,0c0,0,0,0,0,0c0.1,0.4,0.3,0.9,0.4,1.3c0,0.3,0,0.6,0,0.9c0,4-1.1,7.4-1.7,8.1
    c-0.6-0.6-1.7-4-1.7-8.1c0-0.3,0-0.5,0-0.8c0.2-0.5,0.3-1,0.4-1.4c0,0,0,0-0.1,0c0.4,0.1,0.8,0.1,1.2,0.1c0,0,0,0,0,0
    c-0.1-0.2-0.2-0.4-0.3-0.6c-0.1-0.2-0.2-0.2-0.3-0.1c-0.2,0.1-0.5,0.2-0.7,0.3c-0.1,0-0.1,0.1-0.2,0.2c0,0,0,0.1,0,0.1
    c-0.1,0-0.1,0-0.2,0c0,0,0,0,0,0c-0.1-0.1-0.2-0.1-0.2-0.2c-0.1,0-0.2,0.1-0.3,0.1c0,0,0,0,0,0c-0.2,0.7-0.4,1.4-0.7,2.1
    c-1.5,3.7-3.9,6.4-4.7,6.9c-0.3-0.8,0-4.3,1.6-8.2c0.3-0.7,0.6-1.4,1-2c0,0,0,0,0,0c0,0-0.1-0.1-0.2-0.1c-0.1-0.1-0.2-0.1-0.3-0.2
    c0.4,0,0.3-0.1,0.4-0.5c0.1-0.6,0-0.6-0.5-0.7c0,0,0,0-0.1,0c-0.5-0.1-0.6,0-0.7,0.4c0.1,0.1,0.3,0.3,0.4,0.4c0,0,0,0,0,0
    c-0.2,0.4-0.4,0.8-0.6,1.2c-0.2,0.2-0.4,0.5-0.6,0.7c-2.7,2.7-5.9,4.4-7,4.5c0-0.9,1.6-4,4.6-6.9c0.2-0.2,0.4-0.4,0.6-0.6
    c0.4-0.2,0.9-0.4,1.3-0.7c-0.1-0.1-0.2-0.2-0.2-0.3c0.1,0,0.1-0.1,0.2-0.1c0.1-0.2,0.2-0.4,0.3-0.6c0.1-0.2,0-0.3-0.1-0.3
    c-0.2-0.1-0.5-0.2-0.7-0.3c-0.1,0-0.2,0-0.2,0c0,0.1-0.1,0.1-0.1,0.2c0.1,0.2,0.2,0.3,0.3,0.5c0,0,0,0,0,0c-0.7,0.4-1.3,0.7-2.1,1
    c-2.7,1.1-5.6,1.6-7.2,1.6c-0.5,0-0.8-0.1-1-0.1c0.4-0.8,3-3.1,6.9-4.7c0.7-0.3,1.5-0.6,2.2-0.8c0,0,0,0,0,0c0,0.1,0,0.2,0.1,0.3
    c0,0,0,0,0.1,0c0.6-0.4,0.6-0.6,0.1-1.1c-0.3-0.3-0.3-0.3-0.5-0.3c0,0,0,0.1,0,0.1c0,0,0,0,0-0.1c-0.4,0.1-0.9,0.3-1.3,0.4
    c-0.3,0-0.6,0-0.9,0c-4,0-7.4-1.1-8.1-1.7c0.6-0.6,4-1.7,8.1-1.7c0.3,0,0.5,0,0.8,0c0.5,0.2,1,0.3,1.4,0.4c0,0,0-0.1,0-0.1
    c0,0.1,0,0.2,0,0.3c0.2-0.1,0.5-0.2,0.5-0.4c0,0,0-0.1,0-0.1c0,0,0,0,0,0c-0.1-0.2-0.2-0.5-0.4-0.7c0-0.1,0-0.1,0-0.2c0,0,0,0,0,0
    c0,0,0,0,0,0c-0.7-0.2-1.5-0.4-2.2-0.7c-3.7-1.5-6.4-3.9-6.9-4.7c0.1,0,0.4-0.1,1-0.1c1.6,0,4.4,0.5,7.1,1.7c0.7,0.3,1.4,0.6,2.1,1
    c-0.4,0.7-0.8,1.5-1,2.3c0-0.1,0-0.2,0.1-0.2c0,0,0.1,0,0.1,0c0.3,0,0.5-0.1,0.8-0.2c0.1,0,0.2-0.1,0.1-0.3c0-0.2-0.1-0.4-0.1-0.6
    c-0.1-0.3-0.1-0.4-0.3-0.4c0-0.1,0.1-0.1,0.1-0.2c0.3-0.1,0.3-0.2,0.3-0.5c0-0.1,0.1-0.2,0.2-0.2c0,0,0,0.1,0,0.1
    c0.1,0.5,0.1,0.5,0.6,0.5c0.1,0,0.2,0,0.3,0c0.3,0,0.3,0,0.4-0.3c0-0.2,0-0.4,0-0.7c0-0.1-0.1-0.2-0.2-0.2c-0.2,0-0.3-0.1-0.5-0.1
    c0-0.1,0.1-0.1,0.1-0.2c0.6,0.2,0.8,0,0.9-0.7c0-0.1,0-0.2,0-0.2c0.2-0.2,0.4-0.4,0.6-0.6c0,0,0,0.1,0,0.1c0.3,0.1,0.5,0.3,0.8,0.4
    c0.1-0.1,0.2-0.1,0.2-0.2c0.1-0.3,0.2-0.5,0.3-0.8c0-0.1,0-0.2,0-0.2c0,0-0.1-0.1-0.1-0.1c0.1,0,0.1-0.1,0.2-0.1c0.1,0,0.2,0,0.2,0
    c0.1,0,0.2-0.1,0.3-0.3c0.1,0,0.2-0.1,0.2-0.1c-0.1,0.1-0.1,0.2-0.2,0.4c0,0.1,0,0.2,0.1,0.2c0.2,0.1,0.4,0.3,0.6,0.4
    c0.2,0.1,0.3,0.1,0.4-0.1c0.1-0.1,0.2-0.2,0.2-0.3c0.3-0.4,0.3-0.4-0.1-0.8c0,0-0.1-0.1-0.1-0.1c0.1,0,0.2-0.1,0.2-0.1
    c0.1,0.1,0.2,0.2,0.3,0.3c0.1,0.1,0.1,0.1,0.2,0.1c0.1,0,0.1-0.1,0.2-0.1c0.2-0.2,0.3-0.4,0.5-0.6c0,0,0,0,0,0
    c0.3,0,0.5-0.1,0.8-0.1c0,0,0,0.1,0,0.1c0.1,0.2,0.3,0.4,0.4,0.6c0.1,0.1,0.2,0.1,0.3,0.1c0.2-0.1,0.4-0.3,0.6-0.4
    c0.1-0.1,0.2-0.2,0.1-0.3c0,0,0,0,0-0.1c0.4,0,0.7,0.1,1.1,0.1c-0.1,0.1-0.2,0.1-0.3,0.2c0,0-0.1,0.1-0.1,0.2
    c0.1,0.2,0.2,0.5,0.3,0.7c0,0.1,0.2,0.1,0.3,0.1c0.2-0.1,0.5-0.2,0.7-0.3c0.1,0,0.1-0.1,0.2-0.2c-0.1-0.2-0.1-0.4-0.1-0.5
    c0.1,0,0.2,0,0.2,0.1c0,0.1,0.1,0.3,0.1,0.4c0,0.1,0.2,0.2,0.3,0.1c0.2-0.1,0.4-0.1,0.5-0.2c0,0,0.1,0,0.1,0
    c0.3,0.1,0.5,0.2,0.8,0.4c0,0.1,0,0.2,0,0.4c0,0.6,0,0.6,0.6,0.6c0.1,0,0.3,0,0.4,0c0.1,0,0.2-0.1,0.2-0.2c0,0,0,0,0,0
    c0.1,0.1,0.2,0.1,0.2,0.2c0,0.2,0.1,0.2,0.3,0.3c0.1,0.1,0.1,0.1,0.2,0.2c-0.1,0-0.2,0-0.3,0c-0.1,0-0.2,0.1-0.2,0.2
    c0,0.2-0.1,0.5-0.1,0.7c0,0.1,0.1,0.2,0.1,0.2c0.2,0.1,0.5,0.1,0.8,0.2c0.1,0,0.2-0.1,0.2-0.1c0.1-0.2,0.1-0.3,0.2-0.5
    c0.1,0.1,0.1,0.1,0.2,0.2c0,0.1-0.1,0.3-0.1,0.4c0,0.2,0,0.3,0.2,0.3c0.1,0,0.3,0.1,0.4,0.1c0.1,0,0.1,0,0.2,0
    c0.2,0.2,0.3,0.5,0.5,0.7c0,0-0.1,0-0.1,0.1c-0.1,0.2-0.3,0.4-0.3,0.6c0,0.1,0,0.2,0.1,0.3c0.1,0.1,0.3,0.2,0.4,0.3
    c0.4,0.2,0.4,0.3,0.6,0c0,0.1,0.1,0.1,0.1,0.2c0,0,0,0,0,0c-0.1,0.2-0.1,0.3,0.1,0.4c0,0,0.1,0.1,0.1,0.1c0,0.1,0.1,0.2,0.1,0.2
    c-0.3-0.8-0.6-1.6-1-2.3c0.6-0.3,1.3-0.7,2.1-1c2.8-1.1,5.6-1.6,7.2-1.6c0.4,0,0.6,0,0.8,0c-0.7,1-3.4,3.3-6.7,4.7
    c-0.7,0.3-1.5,0.6-2.2,0.8c0,0,0,0,0,0c-0.1-0.2-0.1-0.4-0.2-0.7c-0.1-0.1-0.2-0.2-0.4-0.2c0,0-0.2,0-0.2,0.1
    c-0.2,0.2-0.3,0.4-0.5,0.6c-0.1,0.1-0.1,0.2,0,0.3c0.2,0.2,0.3,0.4,0.5,0.5c0.1,0.1,0.3,0.1,0.4,0c0.2-0.1,0.3-0.2,0.4-0.4
    c0,0.1,0,0.1,0,0.2c0,0-0.1,0-0.1,0.1c0,0,0,0-0.1,0.1c-0.4,0.3-0.4,0.5,0,0.9c0.2,0.2,0.3,0.3,0.4,0.4c0,0.2,0,0.4,0,0.7
    c-0.1-0.1-0.2,0-0.3,0c-0.2,0.1-0.4,0.2-0.6,0.4c-0.1,0.1-0.1,0.2-0.1,0.3c0.1,0.2,0.2,0.4,0.3,0.6c0.1,0.2,0.2,0.2,0.4,0.1
    c0.1,0,0.1,0,0.2-0.1c0.1-0.4,0.1-0.9,0.1-1.4c0-0.5,0-0.9-0.1-1.3c0,0,0,0.1,0,0.1c0.4-0.1,0.9-0.3,1.4-0.4c0.3,0,0.6,0,0.9,0
    c3.8,0,7,1.1,8,1.7C40.9,22.3,37.5,23.4,34,23.4z"/>
  <path  d="M14.7,28.5c-0.2-0.1-0.4-0.1-0.6-0.1c0.2,0.3,0.5,0.5,0.8,0.8c0-0.1,0-0.2,0.1-0.2
    C15,28.7,14.9,28.5,14.7,28.5z"/>
  <path  d="M16.5,27.8c0-0.1-0.1-0.2-0.2-0.2c-0.2,0-0.4-0.1-0.6-0.2c-0.1,0-0.2,0-0.3,0.1c-0.1,0.3-0.2,0.5-0.2,0.8
    c0,0.1,0.1,0.3,0.2,0.3c0.3,0.1,0.5,0.1,0.8,0.1c0.2,0,0.3-0.1,0.3-0.2C16.4,28.3,16.5,28.1,16.5,27.8z"/>
  <path  d="M13.8,28c0,0.1,0.1,0.1,0.2,0.1c0.3,0.1,0.5,0.1,0.9,0.2c0.1-0.1,0.2-0.1,0.2-0.2c0.1-0.2,0.2-0.4,0.2-0.7
    c0-0.1,0-0.2-0.1-0.2c-0.2-0.1-0.5-0.2-0.8-0.3c-0.1,0-0.2,0-0.2,0.1c-0.1,0.2-0.3,0.5-0.4,0.8C13.7,27.8,13.7,27.9,13.8,28
    C13.8,28,13.8,28,13.8,28z"/>
  <path  d="M13.4,24.6c-0.2-0.2-0.4-0.4-0.6-0.5c-0.1-0.1-0.3-0.1-0.4,0c-0.1,0.1-0.3,0.3-0.4,0.4c0,0,0,0,0,0.1
    c0.1,0.2,0.1,0.4,0.2,0.7c0.1,0.1,0.3,0.2,0.4,0.3c0.1,0.1,0.2,0.1,0.3-0.1c0.1-0.2,0.3-0.4,0.4-0.5C13.4,24.8,13.4,24.7,13.4,24.6
    z"/>
  <path  d="M14.3,26c0.3-0.5,0.3-0.5-0.2-0.8c-0.1-0.1-0.3-0.2-0.4-0.3c-0.1,0-0.1,0-0.1,0.1c-0.2,0.2-0.3,0.3-0.5,0.5
    c-0.2,0.3-0.1,0.4,0.2,0.6c0.1,0.1,0.2,0.1,0.3,0.1C14.1,26.5,14.1,26.5,14.3,26z"/>
  <path  d="M24.9,29.2c-0.2-0.1-0.4-0.3-0.6-0.4c-0.1,0-0.2,0-0.2,0c-0.2,0.1-0.3,0.2-0.5,0.4c-0.1,0.1-0.1,0.1-0.1,0.2
    c0,0.1,0,0.1,0.1,0.2c0.2,0.2,0.4,0.4,0.6,0.6c0,0,0.2,0,0.3,0c0.2-0.2,0.3-0.4,0.5-0.6C25.1,29.4,25.1,29.3,24.9,29.2z"/>
  <path  d="M23.5,29.7c0,0-0.2,0-0.2,0c-0.2,0.1-0.4,0.3-0.6,0.4c0,0-0.1,0.2-0.1,0.2c0.2,0.3,0.3,0.5,0.5,0.7
    c0,0.1,0.2,0.1,0.3,0c0.2-0.2,0.4-0.4,0.7-0.6c0,0,0-0.1,0-0.1c0,0,0-0.1,0-0.1C23.9,30.1,23.7,29.9,23.5,29.7z"/>
  <path  d="M22.5,30.6c-0.1-0.1-0.2-0.2-0.4-0.1c-0.2,0.1-0.4,0.3-0.6,0.4c-0.1,0-0.1,0.2-0.1,0.2
    c0.1,0.2,0.2,0.5,0.3,0.7c0.2,0,0.4,0,0.6,0c0.2-0.1,0.3-0.3,0.5-0.4c0,0,0-0.2,0-0.2C22.8,30.9,22.6,30.7,22.5,30.6z"/>
  <path  d="M28.8,16.8c0.2,0.1,0.4,0.2,0.6,0.3c0.1,0,0.2,0,0.2,0c0.2-0.3,0.3-0.6,0.5-0.9c-0.1-0.1-0.2-0.2-0.3-0.3
    c-0.2-0.1-0.5-0.2-0.8-0.2c-0.1,0-0.2,0.1-0.2,0.1c-0.1,0.2-0.2,0.5-0.2,0.7C28.6,16.6,28.7,16.7,28.8,16.8z"/>
  <path  d="M20.6,30c-0.1-0.2-0.2-0.2-0.3-0.1c-0.2,0.1-0.4,0.1-0.7,0.2c-0.1,0-0.2,0.1-0.2,0.3c0.1,0.2,0.1,0.5,0.2,0.7
    c0,0.1,0.1,0.2,0.3,0.3c0.3-0.2,0.6-0.3,0.9-0.5c0,0,0-0.2,0-0.2C20.8,30.4,20.7,30.2,20.6,30z"/>
  <path  d="M19,30.2c-0.2,0-0.4,0.1-0.5,0.1c-0.2,0-0.4,0.1-0.3,0.4c0,0.1,0,0.2,0,0.3c0,0,0,0.1,0,0.1
    c0.3,0.1,0.6,0.2,0.9,0.3c0.5-0.2,0.5-0.1,0.3-1C19.3,30.3,19.2,30.2,19,30.2z"/>
  <path  d="M29.1,23.9c0.6-0.2,0.7-0.4,0.4-1c0-0.1-0.1-0.2-0.2-0.2c-0.3-0.1-0.9,0.3-0.9,0.6
    C28.4,23.9,28.7,24.1,29.1,23.9z"/>
  <path  d="M19,17.1c0.1,0,0.1,0,0.2,0c0.4,0.1,0.6-0.1,0.6-0.5c0-0.1,0-0.2-0.1-0.3c-0.3-0.4-0.9-0.4-1.1,0
    C18.4,16.7,18.6,17,19,17.1z"/>
  <path  d="M17.9,15.1c-0.3,0-0.3,0.2-0.4,0.4c-0.1,0.1-0.1,0.2-0.1,0.3c-0.1,0.2,0,0.4,0.2,0.4c0.2,0,0.3,0.1,0.5,0.1
    c0.3,0.1,0.7-0.3,0.7-0.6c0,0,0,0,0-0.1C18.7,15.5,18.2,15.1,17.9,15.1z"/>
  <path  d="M16.6,15.9C16.6,15.9,16.6,15.9,16.6,15.9c-0.6-0.1-0.6-0.1-0.7,0.4c-0.1,0.7-0.1,0.7,0.6,0.8
    c0.2-0.1,0.4-0.1,0.5-0.2C17.4,16.4,17.2,16,16.6,15.9z"/>
  <path  d="M17.2,17.2c0.1,0.3,0.3,0.3,0.6,0.3c0.5,0,0.7-0.2,0.7-0.6c0-0.2-0.1-0.4-0.3-0.4c-0.3-0.1-0.5-0.2-0.8-0.1
    C17.2,16.5,17.1,17,17.2,17.2z"/>
  <path  d="M19.7,14.2C19.6,14.2,19.6,14.2,19.7,14.2c-0.2,0.4-0.2,0.4,0.1,0.6c0.1,0.1,0.3,0.2,0.4,0.3
    c0.1,0,0.1,0.1,0.2,0.1c0.2,0,0.6-0.4,0.6-0.7c-0.1-0.1-0.2-0.2-0.3-0.3C20.2,13.6,20,13.6,19.7,14.2z"/>
  <path  d="M19.4,14.8c-0.2,0.1-0.5,0.5-0.5,0.7c0,0.3,0.2,0.4,0.4,0.4c0,0,0.1,0,0.1,0.1c0.4,0.1,0.8-0.1,0.8-0.5
    C20.2,15.3,19.6,14.8,19.4,14.8C19.4,14.8,19.4,14.8,19.4,14.8z"/>
  <path  d="M20.6,15.2C20.6,15.2,20.6,15.2,20.6,15.2c-0.3,0.3-0.3,0.6,0,0.8c0.1,0,0.2,0.1,0.2,0.1
    c0.4,0.2,0.8,0,0.8-0.5c0,0,0-0.1,0-0.1c-0.2-0.2-0.4-0.4-0.6-0.5C21,14.9,20.7,15.1,20.6,15.2z"/>
  <path  d="M16.2,18.2c0.2,0,0.4-0.1,0.6-0.1c0.1,0,0.1-0.1,0.1-0.1c0.2-0.4,0.1-0.9-0.5-0.9c-0.6,0-0.6,0-0.7,0.6
    C15.8,18.1,16,18.3,16.2,18.2z"/>
  <path  d="M13.3,20c-0.2,0.1-0.5,0.2-0.7,0.3c-0.1,0-0.1,0.1-0.2,0.3c0.2,0.3,0.4,0.6,0.5,0.9c0,0,0.1,0,0.2,0
    c0.2-0.1,0.5-0.2,0.7-0.4c0.1,0,0.1-0.2,0.1-0.2c-0.1-0.2-0.2-0.5-0.3-0.7C13.5,20,13.3,20,13.3,20z"/>
  <path  d="M13.5,22.5c0,0.1,0.2,0.1,0.2,0.1c0.2-0.2,0.5-0.3,0.6-0.5c0.2-0.2,0-0.4-0.1-0.5c-0.1-0.2-0.2-0.4-0.5-0.4
    c-0.2,0.2-0.5,0.4-0.8,0.6c0,0,0,0.2,0,0.2C13.2,22.1,13.4,22.3,13.5,22.5z"/>
  <path  d="M15.3,18.2c-0.1,0-0.3,0-0.4,0.1c-0.1,0-0.2,0.1-0.2,0.2c0,0.2,0.1,0.5,0.1,0.7c0,0.2,0.2,0.2,0.4,0.2
    c0.2-0.1,0.3-0.1,0.5-0.2c0.3-0.1,0.3-0.2,0.3-0.5C15.9,18.2,15.8,18.1,15.3,18.2z"/>
  <path  d="M12.9,23.9c0.2,0.2,0.4,0.3,0.6,0.5c0.1,0.1,0.2,0.1,0.3,0c0.2-0.2,0.3-0.4,0.4-0.6c0-0.1,0-0.2,0-0.3
    c-0.1-0.2-0.3-0.4-0.4-0.5c0-0.1-0.1-0.1-0.2-0.1c0,0-0.1,0-0.1,0c-0.2,0.2-0.5,0.4-0.7,0.6C12.8,23.6,12.8,23.8,12.9,23.9z"/>
  <path  d="M13.8,19.8c-0.1,0-0.1,0.2-0.1,0.3c0.1,0.2,0.2,0.5,0.3,0.7c0.1,0.1,0.2,0.2,0.3,0.1c0.2-0.1,0.4-0.3,0.7-0.4
    c0,0,0.1-0.1,0.1-0.2c0-0.2,0-0.3-0.1-0.5c0-0.2-0.2-0.3-0.4-0.3C14.3,19.6,14,19.7,13.8,19.8z"/>
  <path  d="M27.8,16.7c-0.6-0.3-0.8-0.1-0.8,0.5c0,0.4,0.1,0.5,0.4,0.6c0.3,0.1,0.5,0,0.6-0.3c0-0.1,0.1-0.2,0.1-0.3
    C28.2,16.9,28.2,16.8,27.8,16.7z"/>
  <path  d="M26.3,18.1c0,0.1,0,0.3,0,0.4c0,0.4,0.1,0.6,0.3,0.6c0.1,0,0.3,0,0.4-0.1c0.1,0,0.2-0.1,0.2-0.2
    c0-0.1,0-0.2,0.1-0.2c0.1-0.4,0.1-0.5-0.3-0.7C26.8,17.8,26.3,17.9,26.3,18.1z"/>
  <path  d="M29.3,17.2c-0.2-0.1-0.5-0.2-0.7-0.3c-0.1,0-0.1,0-0.2,0c-0.1,0.1-0.4,0.9-0.3,1c0,0,0,0,0,0
    c0.2,0.1,0.4,0.3,0.7,0.5c0.1-0.1,0.2-0.1,0.3-0.2c0.1-0.2,0.2-0.4,0.4-0.7C29.5,17.4,29.5,17.3,29.3,17.2z"/>
  <path  d="M25.9,16.7c-0.1,0.2-0.1,0.8,0,0.9c0.3,0.3,0.7,0.2,0.9-0.2c0-0.1,0.1-0.3,0.1-0.4c0-0.1,0-0.2-0.1-0.3
    C26.6,16.4,26.1,16.4,25.9,16.7z"/>
  <path  d="M29.6,19c0,0-0.1-0.1-0.1-0.1c-0.6-0.4-0.7-0.4-1.1,0.3C28.3,19.5,28.7,20,29,20c0,0,0.1,0,0.2-0.1
    c0.1-0.1,0.3-0.3,0.4-0.5C29.8,19.3,29.8,19.1,29.6,19z"/>
  <path  d="M22.1,14.1c0-0.1-0.2-0.1-0.2-0.1c-0.2,0.1-0.4,0.2-0.6,0.3c-0.1,0-0.1,0.1-0.1,0.2c0,0.3,0.4,0.7,0.8,0.7
    c0.1,0,0.3-0.1,0.4-0.2c0.1-0.1,0.2-0.3,0.1-0.5C22.3,14.5,22.2,14.3,22.1,14.1z"/>
  <path  d="M23.4,14.7c-0.4,0-0.8,0.2-0.8,0.5c0,0.3,0.4,0.8,0.7,0.8c0.3,0,0.6-0.2,0.6-0.5
    C23.9,15.2,23.5,14.7,23.4,14.7z"/>
  <path  d="M25.4,15.3c0,0-0.1,0-0.1,0c-0.3,0-0.4,0.2-0.4,0.5c0,0.2,0.1,0.4,0.2,0.5c0,0.1,0.1,0.1,0.2,0.2
    c0.5,0.2,0.8,0,0.8-0.5C26,15.1,26,15.3,25.4,15.3z"/>
  <path  d="M22.4,15.4c-0.2,0-0.5,0.2-0.6,0.4c-0.1,0.3-0.1,0.4,0.1,0.6c0.1,0.1,0.1,0.1,0.2,0.2c0.1,0.1,0.2,0.1,0.3,0.2
    c0.1,0,0.2,0,0.2-0.1c0.1-0.2,0.3-0.3,0.3-0.5c0-0.1-0.1-0.2-0.2-0.4c0-0.1-0.1-0.2-0.2-0.2C22.5,15.5,22.5,15.4,22.4,15.4z"/>
  <path  d="M24.8,15.9c-0.1-0.3-0.1-0.3-0.4-0.3c0,0-0.1,0-0.1,0c-0.4,0-0.7,0.4-0.5,0.8c0,0.1,0.1,0.2,0.1,0.2
    c0.2,0.2,0.4,0.3,0.6,0.2c0.3-0.2,0.4-0.3,0.3-0.6C24.9,16.1,24.9,16,24.8,15.9z"/>
  <path  d="M24.6,17.2c0.1,0.2,0.2,0.5,0.4,0.7c0,0,0,0,0,0c0.2-0.1,0.4-0.1,0.6-0.2c0.1,0,0.1-0.2,0.1-0.3
    c0-0.5-0.2-0.7-0.5-0.7c-0.1,0-0.3,0.1-0.4,0.2C24.7,16.9,24.6,17,24.6,17.2z"/>
  <path  d="M22.3,29.9c0,0,0.2,0,0.2,0c0.2-0.1,0.4-0.3,0.6-0.4c0.1,0,0.1-0.1,0.1-0.2c0-0.2-0.6-0.8-0.8-0.7c0,0,0,0,0,0
    c-0.2,0.1-0.3,0.1-0.4,0.2c-0.1,0.1-0.1,0.2-0.2,0.2c0,0.1,0,0.1,0,0.1C22,29.5,22.2,29.7,22.3,29.9z"/>
  <path  d="M26.3,26.1c0-0.3-0.2-0.6-0.5-0.6c-0.5,0-0.7,0.1-0.7,0.4c0,0.5,0.1,0.6,0.7,0.6
    C26.1,26.6,26.2,26.5,26.3,26.1z"/>
  <path  d="M26.5,27.2c0.2,0.1,0.3,0.1,0.5,0.1c0.2,0,0.3-0.1,0.4-0.3c0-0.1,0.1-0.2,0.1-0.4c0.1-0.3-0.1-0.5-0.4-0.5
    c-0.2,0-0.3,0-0.5,0c-0.2,0-0.4,0.2-0.5,0.5C26.2,27,26.3,27.1,26.5,27.2z"/>
  <path  d="M26.1,27.3C26.1,27.3,26.1,27.3,26.1,27.3c0.1-0.3,0-0.4-0.2-0.5c-0.2-0.1-0.3-0.1-0.5-0.1
    c-0.3-0.1-0.6,0.2-0.6,0.5c0.1,0.1,0.1,0.3,0.2,0.4C25.4,28,25.9,27.9,26.1,27.3z"/>
  <path  d="M27.7,27.6c0.3,0.1,0.5,0.1,0.8,0.2c0.1,0,0.2,0,0.3-0.2c0-0.1,0-0.3,0.1-0.4c0.1-0.6,0.1-0.6-0.6-0.6
    c-0.5,0-0.5,0-0.7,0.5c0,0.1,0,0.1-0.1,0.2C27.5,27.4,27.6,27.6,27.7,27.6z"/>
  <path  d="M24.1,28.4c0-0.3-0.4-0.6-0.8-0.6c-0.3,0-0.6,0.2-0.6,0.6c0,0.2,0.5,0.7,0.7,0.7
    C23.6,29.1,24.1,28.6,24.1,28.4z"/>
  <path  d="M25,29c0,0,0.2,0,0.2-0.1c0.1-0.2,0.3-0.3,0.4-0.5c0.1-0.2,0.1-0.3-0.1-0.5c-0.1-0.1-0.3-0.1-0.4-0.2
    c-0.4-0.1-0.8,0.2-0.8,0.6c0,0,0,0.1,0.1,0.2C24.6,28.8,24.8,28.9,25,29z"/>
  <path  d="M14.4,25.2c0.1,0,0.2,0.1,0.3,0.1c0.1-0.1,0.2-0.1,0.2-0.1c0.1-0.2,0.2-0.4,0.3-0.6c0-0.1,0-0.2-0.1-0.3
    c-0.1-0.1-0.2-0.3-0.4-0.4c-0.1-0.1-0.3-0.1-0.4,0c-0.2,0.2-0.3,0.4-0.5,0.6c-0.1,0.1,0,0.2,0.1,0.3C14.1,25,14.3,25.1,14.4,25.2z"
    />
  <path  d="M29.8,19.4c-0.1,0.2-0.3,0.4-0.4,0.6c0,0.1,0,0.2,0,0.3c0.1,0.2,0.3,0.4,0.4,0.6c0,0,0.1,0,0.1,0.1
    c0,0,0.1,0,0.1,0c0.2-0.2,0.5-0.4,0.7-0.6c0,0,0-0.2,0-0.3c-0.2-0.2-0.4-0.4-0.6-0.6C30,19.3,29.9,19.3,29.8,19.4z"/>
  <path  d="M30.2,21.1c0.1,0.2,0.2,0.4,0.4,0.7c0,0.1,0.2,0.1,0.2,0.1c0.3-0.1,0.5-0.3,0.8-0.5c0.1-0.1,0.1-0.2,0-0.4
    c-0.2-0.2-0.3-0.4-0.5-0.6c0,0-0.1-0.1-0.2-0.1c0,0-0.1,0-0.1,0c-0.2,0.2-0.4,0.4-0.6,0.6C30.1,21,30.1,21.1,30.2,21.1z"/>
  <path  d="M30.4,21.9c-0.1-0.2-0.3-0.5-0.4-0.7c0-0.1-0.2-0.1-0.2-0.1c-0.2,0.2-0.5,0.4-0.7,0.6c0,0,0,0.1,0,0.2
    c0,0.2,0.1,0.3,0.2,0.5c0.1,0.1,0.2,0.1,0.3,0.2c0.3-0.2,0.6-0.3,0.9-0.5C30.4,22,30.5,21.9,30.4,21.9z"/>
  <path  d="M29.2,20.3c-0.2-0.2-0.3-0.2-0.5,0c-0.1,0.1-0.2,0.3-0.4,0.4c-0.1,0.2-0.1,0.4,0,0.5c0.1,0.1,0.2,0.2,0.4,0.3
    c0.2-0.1,0.3-0.1,0.4-0.2C29.7,21,29.7,20.8,29.2,20.3z"/>
  <path  d="M28.8,25.8c0-0.1,0-0.2,0-0.2c0-0.3-0.1-0.4-0.4-0.4c-0.1,0-0.3,0-0.4,0.1c-0.3,0.1-0.6,0.6-0.3,0.9
    c0.2,0.2,0.7,0.3,1,0.2C28.9,26.3,28.8,26.1,28.8,25.8C28.8,25.9,28.8,25.9,28.8,25.8z"/>
  <path  d="M24.7,27.3c-0.1-0.1-0.2-0.3-0.3-0.3c-0.2-0.1-0.3-0.1-0.5-0.2c-0.2,0-0.3,0-0.4,0.2c-0.2,0.3-0.1,0.7,0.2,0.9
    c0.1,0.1,0.2,0.1,0.3,0.2c0.1,0,0.1,0,0.2,0C24.4,27.9,24.6,27.6,24.7,27.3z"/>
  <path  d="M16.9,28.9c0.1,0,0.2,0,0.3,0c0,0,0,0,0,0c0.1,0,0.2,0,0.3,0c0.3,0,0.3-0.1,0.3-0.3c0-0.2,0-0.4-0.1-0.6
    c0-0.1-0.1-0.2-0.1-0.2c-0.2-0.1-0.5-0.1-0.7-0.1c-0.1,0-0.2,0.1-0.3,0.2c-0.1,0.2-0.1,0.4-0.1,0.6C16.5,28.7,16.6,28.9,16.9,28.9z
    "/>
  <path  d="M18,31c-0.1-0.7-0.1-0.7-0.7-0.6c-0.3,0-0.4,0.1-0.5,0.1c0.4,0.2,0.8,0.4,1.2,0.6C18,31.1,18,31,18,31z"/>
  <path  d="M29.3,18c-0.2,0.4-0.2,0.4,0.1,0.7c0.1,0.1,0.2,0.2,0.3,0.3c0,0,0.1,0.1,0.1,0.1c0,0,0.1-0.1,0.1-0.1
    c0.1-0.1,0.2-0.2,0.3-0.4c0.4-0.5,0.4-0.6-0.2-0.8C29.6,17.4,29.7,17.4,29.3,18z"/>
  <path  d="M16.4,27.4c0.1,0,0.2,0,0.3-0.1c0.1-0.2,0.1-0.5,0.2-0.7c0-0.1-0.1-0.2-0.2-0.2c-0.2-0.1-0.4-0.2-0.6-0.2
    c-0.2-0.1-0.3,0-0.4,0.2c-0.1,0.2-0.1,0.4-0.2,0.6c-0.1,0.1,0,0.2,0.1,0.3C15.9,27.3,16.2,27.4,16.4,27.4z"/>
  <path  d="M14.4,26.8c0.3,0.1,0.5,0.2,0.8,0.3c0.1,0,0.2,0,0.2-0.1c0.1-0.3,0.2-0.5,0.3-0.8c0-0.1-0.1-0.1-0.2-0.2
    c-0.2-0.1-0.4-0.2-0.5-0.3c-0.1-0.1-0.3-0.1-0.3,0.1c-0.1,0.2-0.2,0.5-0.4,0.7C14.2,26.6,14.2,26.7,14.4,26.8z"/>
  <path  d="M16.9,30.3c0.2,0,0.4,0,0.5-0.1c0.4,0,0.4-0.1,0.4-0.5c0-0.1,0-0.3-0.1-0.4c0-0.1-0.1-0.2-0.2-0.2
    c-0.2,0-0.4,0-0.7-0.1c-0.2,0-0.3,0.1-0.3,0.2c0,0.2-0.1,0.5-0.1,0.7C16.5,30.2,16.6,30.3,16.9,30.3z"/>
  <path  d="M20.9,29.4c0.2-0.1,0.4-0.1,0.5-0.2c0.1-0.1,0.2-0.2,0.3-0.3c-0.1-0.1-0.1-0.2-0.1-0.2
    c-0.1-0.1-0.2-0.2-0.2-0.3c-0.1-0.1-0.2-0.3-0.4-0.2c-0.3,0-0.5,0.1-0.6,0.4c0,0.1,0,0.2,0,0.2c0.1,0.2,0.2,0.4,0.2,0.6
    C20.7,29.4,20.8,29.4,20.9,29.4z"/>
  <path  d="M18.6,30.2c0.6-0.1,0.6-0.1,0.5-0.8C19,28.9,19,28.9,18.5,29c-0.6,0-0.7,0.1-0.6,0.7c0,0,0,0,0,0
    C18,30.3,18,30.3,18.6,30.2z"/>
  <path  d="M21.9,28.7C21.9,28.7,21.9,28.7,21.9,28.7c0.3,0,0.7-0.3,0.7-0.6c0-0.1,0-0.2-0.1-0.2
    c-0.2-0.1-0.3-0.3-0.5-0.4c-0.1-0.1-0.2-0.1-0.3-0.1c-0.2,0-0.4,0.4-0.4,0.6C21.3,28.1,21.8,28.7,21.9,28.7z"/>
  <path  d="M19.6,29.9c0.3-0.1,0.6-0.2,0.8-0.3c0.1,0,0.1-0.1,0.1-0.1c-0.1-0.3-0.3-0.6-0.4-0.9c0,0-0.1,0-0.2-0.1
    c-0.1,0-0.3,0-0.4,0.1c-0.3,0-0.4,0.2-0.3,0.4c0,0.2,0.1,0.5,0.2,0.7C19.4,29.8,19.5,29.9,19.6,29.9z"/>
</g>
</svg>
