<svg width="200" height="43.3" viewBox="0 0 200 43.3"><path class="st0" d="M23.5 11.7c-.2 0-.4-.1-.6-.1.2 0 .4.1.6.1z"/><g class="text"><path d="M57.6 21.7v1.8h-5.3v5.4l2.3.5v1.4H48v-1.4l1.9-.5V16.5l-1.9-.4v-1.2l4.3-.1h7v3.8h-1.5l-.6-1.9h-4.9v5.1h5.3zM70.8 20c.9 1.1 1.4 2.6 1.4 4.4 0 1.3-.2 2.4-.7 3.4s-1.1 1.8-2 2.3c-.9.5-1.9.8-3 .8-1.7 0-3.1-.5-4-1.6-1-1-1.4-2.6-1.4-4.6 0-1.3.2-2.4.7-3.4.5-1 1.2-1.7 2.1-2.2.9-.5 1.9-.8 3-.8 1.7.1 3 .6 3.9 1.7zm-6.5 1.3c-.5.7-.8 1.9-.8 3.3 0 3 1.1 4.5 3.2 4.5 1.1 0 1.9-.4 2.4-1.1.5-.8.8-1.9.8-3.4 0-2.9-1-4.3-3.1-4.3-1.2-.1-2 .3-2.5 1zM80.1 30.7h-6.3v-1.3l1.9-.6V14.9l-1.9-.5v-1.3l4.3-.1v15.8l2.1.6v1.3zM88.6 20.3l-1-.3v-1.2l5-.1V20l-1.6.2-2.4 3.5 2.9 5.1 1.7.6v1.3h-3.1L87 24.9h-2v4l1.5.6v1.3h-5.7v-1.3l1.9-.6v-14l-1.9-.5v-1.3L85 13v10.1h1.9l1.7-2.8zM100.2 28.2l2.5-7.9-1.6-.3v-1.2l5.4-.1V20l-1.5.2-3.2 9-.2.5c-.5 1.4-1 2.5-1.4 3.3-.4.9-1 1.6-1.8 2.2-.7.6-1.7.9-2.8.9h-.8c-.3 0-.5-.1-.6-.1l.2-1.6h1.1c.7 0 1.4-.3 2-.9.6-.6 1.1-1.6 1.7-2.8L95 20.3l-1.4-.3v-1.2l5.4-.1V20l-1.6.2 2.8 8zM116.1 28.6c.2.1.5.2.9.3.4.1.8.1 1.2.1.9 0 1.7-.2 2.4-.6.7-.4 1.1-1 1.1-1.8 0-.5-.2-.9-.5-1.2-.3-.3-.7-.6-1.1-.8-.4-.2-1.1-.5-1.9-.7-1-.4-1.9-.7-2.5-1-.6-.3-1.2-.8-1.6-1.4s-.7-1.4-.7-2.3c0-1.5.5-2.6 1.5-3.4s2.3-1.1 3.9-1.1c.6 0 1.3.1 2 .2s1.3.3 1.8.4c.5.1.8.2 1 .3l-.1 3.9H122l-.8-2.4c-.1 0-.2-.1-.4-.1s-.5-.1-.9-.2-.7-.1-1.1-.1c-1 0-1.7.2-2.3.7-.5.4-.8 1-.8 1.6 0 .5.2.9.5 1.2.3.3.7.6 1.1.8.5.2 1.1.5 1.9.8 1 .3 1.8.7 2.4 1s1.2.8 1.6 1.3c.4.6.7 1.3.7 2.2 0 1.1-.3 2-.8 2.8-.5.8-1.3 1.3-2.2 1.7-.9.4-1.9.5-3 .5-.7 0-1.4-.1-2.1-.2s-1.3-.3-1.7-.4c-.5-.1-.7-.2-.9-.3v-4h1.8l.5 2.4c.3-.4.4-.3.6-.2zM133.8 20.4h-3.3v7.3c0 .9.4 1.4 1.1 1.4.5 0 1.1-.2 1.8-.6l.6 1.2c-1 .8-2.1 1.1-3.2 1.1-.8 0-1.4-.3-1.9-.8s-.7-1.4-.7-2.5v-7.2h-2.3v-1.5l2.3-.2v-2.9l2.3-.5v3.3h3.3v1.9zM140.9 19c.6-.4 1.2-.6 1.9-.6.3 0 .7 0 1 .1.3.1.5.1.7.2.2.1.3.1.4.1l-.1 3.3h-1.5l-.3-1.7c-.8 0-1.4.2-2 .5s-1 .8-1.3 1.2v6.8l2.3.6v1.3h-6.5v-1.3l1.9-.6v-8.5l-1.9-.5v-1.2l3.8-.1.2 1.7c.3-.5.8-.9 1.4-1.3zM155.8 20c.9 1.1 1.4 2.6 1.4 4.4 0 1.3-.2 2.4-.7 3.4-.5 1-1.1 1.8-2 2.3-.9.5-1.9.8-3 .8-1.7 0-3.1-.5-4-1.6-1-1-1.4-2.6-1.4-4.6 0-1.3.2-2.4.7-3.4.5-1 1.2-1.7 2.1-2.2.9-.5 1.9-.8 3-.8 1.6.1 3 .6 3.9 1.7zm-6.6 1.3c-.5.7-.8 1.9-.8 3.3 0 3 1.1 4.5 3.2 4.5 1.1 0 1.9-.4 2.4-1.1.5-.8.8-1.9.8-3.4 0-2.9-1-4.3-3.1-4.3-1.1-.1-1.9.3-2.5 1zM166.6 20.3l-1-.3v-1.2l5-.1V20l-1.6.3-2.4 3.5 2.9 5.1 1.7.6v1.3h-3.1l-3.3-5.8h-2v4l1.5.6v1.3h-5.7v-1.3l1.9-.6V14.9l-1.9-.5v-1.3l4.2-.1v10.1h1.9l1.9-2.8zM175.6 28c.6.7 1.4 1.1 2.4 1.1.7 0 1.3-.1 1.9-.3.6-.2 1-.4 1.4-.6.4-.2.6-.3.6-.4l.8 1.2s-.2.2-.7.6c-.5.3-1.1.6-1.8.9-.7.3-1.5.4-2.3.4-1.8 0-3.2-.5-4.1-1.6s-1.4-2.6-1.4-4.5c0-1.2.2-2.3.7-3.3.5-1 1.1-1.7 2-2.3s1.8-.8 2.9-.8c3.2 0 4.8 1.8 4.8 5.4v.7c0 .2-.1.4-.1.5h-7.9c-.1 1.2.2 2.2.8 3zm4.1-7c-.4-.6-1-.9-1.9-.9-.9 0-1.6.3-2.1.9s-.8 1.3-.9 2.2h5.5c0-.9-.2-1.6-.6-2.2zM187.2 29.1c.4.1.8.1 1.3.1 1.7 0 2.6-.6 2.6-1.8 0-.5-.2-.9-.6-1.1-.4-.2-1.1-.5-2-.8-.8-.3-1.5-.5-2-.8-.5-.2-.9-.6-1.3-1-.4-.5-.5-1.1-.5-1.8 0-1.1.4-2 1.2-2.6.8-.6 1.8-.9 3-.9.5 0 1.1.1 1.7.2.6.1 1.1.2 1.5.3s.7.2.8.2l-.1 3.1h-1.5l-.4-1.8s-.1 0-.3-.1-.4-.1-.6-.1c-.3 0-.6-.1-.9-.1-1.4 0-2 .5-2 1.5 0 .5.2.9.7 1.1.4.3 1.1.5 2 .8.8.3 1.4.5 1.9.8.5.2.9.6 1.3 1s.5 1 .5 1.7c0 1.3-.5 2.2-1.4 2.9-1 .7-2.1 1-3.6 1-.6 0-1.2 0-1.7-.1s-1-.1-1.3-.2c-.3-.1-.5-.1-.6-.2V27h1.6l.2 2c-.1 0 .1.1.5.1z"/></g><g class="flower"><path d="M21.5 16.3c-.2 0-.4.2-.5.7-.1.2.1.3.2.4.6.2.5.3.9-.3v-.2c.1-.2-.4-.6-.6-.6zM22.3 17c-.1.1-.2.3-.3.4-.1.1-.1.3 0 .4.2.2.5.3.6.2.2-.1.3-.2.5-.4l.1-.1s0-.1-.1-.1l-.4-.4c-.1-.2-.3-.1-.4 0zM24.5 17.2c-.1-.2-.2-.2-.4-.1s-.3.2-.5.3c-.1.1-.1.2-.1.3.1.2.2.3.4.5 0 0 .1 0 .2.1.2-.1.5-.2.6-.3.1-.1-.1-.3-.1-.5 0-.1-.1-.2-.1-.3z"/><path d="M20.8 17.7c0 .1 0 .1-.1.2-.1.4.1.6.5.6.2 0 .3-.1.4-.3.3-.5.3-.5-.2-.8-.4-.1-.5-.1-.6.3zM23 16.3c-.3.4-.3.4 0 .8l.1.1c.2.3.3.3.6 0l.3-.3c-.1-.2-.2-.4-.3-.5-.1-.3-.5-.3-.7-.1zM19.1 17.2h-.3c-.1 0-.2.1-.2.1-.2.3-.1.6 0 .9.1.2.3.1.4.1h.1c.4 0 .4-.1.4-.5 0-.6 0-.6-.4-.6zM18 17.6h-.3c-.4 0-.5.1-.5.5s.3.6.7.5h.1c.5-.1.6-.2.4-.7-.1-.2-.2-.4-.4-.3zM23.3 17.7c-.2 0-.6.4-.6.6 0 .3.1.5.4.5.5-.1.8-.2.8-.4-.1-.2-.4-.7-.6-.7zM20.7 16.1c-.1 0-.1 0 0 0-.3-.2-.5-.2-.7.1-.1.1-.1.2-.1.3 0 .3 0 .4.3.5.1 0 .3.1.4.1.1 0 .2 0 .2-.1.4-.4.3-.6-.1-.9z"/><path d="M19.2 18.3c-.1 0-.3.1-.4.1-.2 0-.3.1-.2.3.1.2.1.4.2.5 0 .1.1.2.2.2.2 0 .4-.1.6-.2.1-.1.1-.2.1-.4v-.1c0-.4-.1-.5-.5-.4zM19.7 17.6c0 .6 0 .6.6.6.1 0 .3 0 .3-.1.1-.2.2-.5.2-.7 0-.1-.2-.1-.4-.2h-.1c-.5-.2-.6-.1-.6.4zM28.5 18.4c-.1-.1-.3-.3-.5-.3-.2-.1-.5 0-.6.3 0 .1-.1.2-.1.3-.1.4.2.7.6.7 0 0 .2-.1.2-.2l.3-.6c.2 0 .2-.1.1-.2zM16.5 18.3c-.4.1-.4.1-.4.5 0 .1.1.3.1.4.1.2.2.3.4.2l.6-.3c.2-.1.2-.3.1-.5-.2-.3-.4-.4-.8-.3z"/><path d="M26.9 19.1c-.1 0-.4.1-.4.1-.1.3-.1.5-.1.8 0 0 0 .1.1.1.3.3.8.2.9-.2v-.1c.1-.3.1-.4-.1-.6-.1 0-.3 0-.4-.1zM28.2 21.7c0-.1.1-.1.1-.2-.1-.2-.1-.3-.3-.4-.1-.1-.6-.2-.7-.1-.1.2-.3.4-.4.6v.3c.3.4.6.4.9 0 .2-.1.3-.2.4-.2zM27.5 24.1c.3 0 .8-.3.8-.6s-.3-.7-.5-.7-.7.4-.7.6c-.1.3.2.7.4.7zM28.6 20c-.2-.3-.4-.5-.7-.5-.1 0-.2.1-.3.2-.1.2-.2.4-.2.6-.1.2 0 .3.2.4.1.1.3.1.4.1.2 0 .6-.6.6-.8zM23.8 18.8c-.3 0-.7.2-.7.5 0 .4.1.5.5.5s.5-.1.5-.4c0-.4-.2-.6-.3-.6z"/><path d="M23 20c-.1-.2-.3-.2-.6-.1-.2.1-.4.4-.3.5.1.1.3.3.5.3.3 0 .4-.1.5-.3.1.1.3.3.4.3.2 0 .3-.2.4-.3.2-.4.1-.6-.3-.6-.4-.1-.4-.1-.6.2zM25.7 17.8c-.5.1-.6.2-.5.8.1.3.1.3.5.3.5 0 .5 0 .5-.5v-.2c0-.3-.3-.4-.5-.4zM27.6 22.7c.1-.2-.1-.5-.4-.6-.3-.2-.4-.1-.5.1l-.2.2c-.1.1-.2.2-.1.4s.2.4.5.4c.2 0 .6-.3.7-.5zM26.3 20.5c-.1.1-.1.3-.1.4v.3c.2.1.4.2.7.3l.1-.1c.1-.1.2-.3.3-.4.1-.1.1-.3-.1-.3-.2-.1-.4-.2-.7-.3-.1 0-.2 0-.2.1zM26.1 19c-.2 0-.5.1-.7.1l-.1.1c-.1.4.1.7.5.8h.1c.2 0 .3 0 .3-.3 0-.1 0-.3.1-.4 0-.1 0-.3-.2-.3zM24.3 26.8c.4.1.6-.1.6-.5 0-.1 0-.2-.1-.3 0-.1-.1-.1-.2-.2-.2 0-.3-.1-.5-.1s-.3 0-.4.2c.1.6 0 .8.6.9zM23.9 25c-.1-.1-.1-.3-.2-.4-.2-.1-.3-.2-.5 0-.2.1-.4.6-.3.7 0 0 0 .1.1.1s.2.1.3.1c.5.2.6.1.6-.5zM15.2 19.5l-.1.1c0 .3 0 .5.3.8.1.1.3.2.4 0 .1-.1.2-.2.4-.2.2-.1.2-.2.2-.4 0-.3-.3-.7-.5-.6-.3.1-.5.2-.7.3zM23.7 26c0-.2-.2-.3-.7-.4-.2 0-.5.4-.5.7 0 .1.5.5.7.5.4 0 .5-.3.5-.8z"/><path d="M24.6 24.6c-.5 0-.7.2-.7.8 0 .2.1.3.6.3.4 0 .5-.1.5-.4 0-.4-.2-.7-.4-.7zM27.9 25.2c.1 0 .3 0 .4-.1.4-.1.4-.1.4-.5 0-.6-.2-.7-.8-.5-.1 0-.1 0-.2.1-.3.1-.3.3-.3.6.1.2.3.4.5.4zM26.9 26.1c.5 0 .5 0 .6-.5v-.1c0-.3-.3-.6-.6-.5-.1 0-.3.1-.4.1-.1 0-.2.1-.2.2-.2.4.1.8.6.8zM21.5 27.3h.1c.3 0 .3-.3.4-.5 0-.1.1-.3 0-.3-.2-.2-.4-.3-.7-.4-.2.2-.3.4-.4.6 0 .1.1.2.2.4 0 .1.1.1.2.2.1-.1.2-.1.2 0zM25.6 24.3c.1 0 .1-.1.1-.2-.1-.2-.2-.5-.3-.7 0-.1-.1-.1-.2-.1-.3 0-.6.2-.6.4s0 .4.1.6c0 .1.1.2.3.2.3-.1.5-.1.6-.2z"/><path d="M25.4 25.5h.4c.2 0 .4-.2.3-.4 0-.1-.1-.3-.2-.4-.2-.3-.2-.3-.5-.2-.5.2-.5.2-.4.8.1.1.2.2.4.2zM26.9 24.9c.3 0 .4-.2.4-.4 0-.5-.4-.8-.8-.6-.1.1-.2.1-.3.2-.1.1-.1.2-.1.3.1.5.2.6.8.5zM22.9 27.8s0-.1 0 0c.3-.2.4-.4.4-.7 0-.3-.2-.3-.4-.4-.5-.3-.6-.2-.8.3-.1.2 0 .3.1.4.2.1.3.4.7.4zM15.1 25.5l.6.3c.2.1.3 0 .4-.1.1-.2.2-.5.2-.7v-.1c-.2-.2-.4-.4-.7-.4-.1 0-.2.1-.2.1-.1.2-.2.4-.3.7-.1 0-.1.2 0 .2zM15.6 24.3s.2-.1.2-.2l.3-.6v-.1c-.1-.3-.5-.6-.7-.5-.3.2-.4.5-.6.7.1.3.6.7.8.7zM17.2 26.1c.2-.1.2-.4.2-.6 0-.2-.1-.3-.2-.4-.3-.3-.8-.2-.9.2 0 .1-.1.3-.1.4 0 .1.1.3.1.3.3.2.6.2.9.1zM14.9 20.7c-.2.1-.3.2-.5.3-.1.1-.2.2-.1.3.1.2.2.4.3.5.1.1.2.1.3.2.1-.1.2-.1.3-.2l.3-.3c.2-.2.2-.4 0-.7-.1-.2-.4-.2-.6-.1z"/><path d="M14 22.7c-.1.1-.1.2 0 .3.1.2.2.3.3.4.3.3.4.3.7 0 .1-.1.1-.1.1-.2.1-.1.2-.3.2-.4-.1-.2-.1-.3-.2-.4-.2-.3-.4-.3-.7-.1-.2.1-.3.2-.4.4zM18.1 28.8c.2 0 .3.1.5.1.4 0 .5-.2.4-.5 0-.1 0-.2-.1-.3-.1-.3-.5-.6-.9-.4-.3.1-.2.4-.2.6v.4c.2 0 .2.1.3.1zM17.2 27.5c.1 0 .2.1.3.1.3 0 .5-.1.5-.4v-.3c0-.4-.4-.6-.8-.5l-.3.3c-.1.2 0 .3-.1.4.1.3.1.3.4.4zM19.2 28.2c0 .2.2.3.3.3h.5c.2 0 .4-.3.3-.5l-.3-.6c-.1-.1-.2-.2-.4-.1-.4.1-.5.4-.4.8-.1 0 0 .1 0 .1zM19.2 26.8c0-.1-.1-.2-.1-.3-.1-.3-.3-.4-.5-.3-.3.1-.5.3-.5.6v.2c.1.4.2.5.6.5.4-.1.6-.4.5-.7zM20.8 28c.2-.1.5-.3.5-.7-.1-.1-.3-.3-.4-.5-.1-.1-.3-.1-.4 0-.4.3-.4.4-.2.9v.1c.1.2.3.2.5.2zM29.1 22.4l-.3-.6c-.1-.1-.3-.2-.4-.1-.2.1-.4.3-.6.5v.1c0 .3.3.7.5.6.3 0 .5-.3.8-.5 0 .1 0 0 0 0zM19.6 22.1c-.3-.3-.4-.3-.7 0-.2.2-.2.6-.1.6.2.1.4.2.6.2.1 0 .2-.2.3-.2.2-.3 0-.5-.1-.6z"/><path d="M19.7 22.7c-.1.2-.1.3-.2.5s.2.2.3.3c-.4 0-.5.1-.5.3 0 .3.1.6.2.6.2.1.7-.1.8-.2 0-.1.1-.3.1-.4 0-.1-.2-.2-.2-.3.3 0 .3-.1.3-.3V23c0-.2-.1-.4-.3-.5-.2-.1-.3 0-.5.2 0 0 .1 0 0 0zM19.2 19.7c0 .4.2.6.4.7.3.1.4 0 .5-.2.1.1.1.2.3.2h.5c.3 0 .4-.4.3-.6-.2-.3-.6-.3-.9-.1-.1-.2-.4-.4-.6-.3-.4 0-.5.1-.5.3zM21.9 19.1c.2 0 .7-.3.7-.5 0-.3-.3-.6-.6-.6-.2 0-.5.4-.5.6 0 .2.3.5.4.5z"/><path d="M20.4 18.3h-.2c-.5 0-.5 0-.5.5v.2c.1.3.4.5.6.3.2-.1.3-.3.3-.5.2-.3.1-.5-.2-.5zM21.1 18.6c-.3 0-.5.2-.5.6 0 .1.3.4.5.4.1 0 .5-.3.5-.5.1-.2-.2-.5-.5-.5zM18.5 21.8c-.1 0-.1-.1-.2-.1-.2-.2-.4-.2-.5.1-.1.1-.1.3-.2.4-.1.1 0 .2.1.3.2.1.4.1.6.2.2.1.3 0 .4-.2 0-.3 0-.5-.2-.7zM18.3 24.7c0 .1.1.2.1.2.3 0 .6-.1.8-.2.1 0 .1-.1.1-.2.1-.3-.2-.6-.6-.6-.5 0-.5 0-.5.5.1.1.1.2.1.3z"/><path d="M19 23.8c.3 0 .4-.1.5-.4.1-.2 0-.4-.3-.5-.1 0-.1-.1-.2-.1-.4-.1-.5-.1-.5.4v.1c-.1.4 0 .4.4.4h.1c-.1.1-.1.1 0 .1zM20.3 24.4c-.2 0-.4.1-.5.1-.2 0-.2.2-.2.3.1.2.2.3.2.5.1.1.2.2.3.1.2-.1.3-.2.5-.3.1-.1.1-.2.1-.2 0-.2-.2-.5-.4-.5zM21.5 24.2c0-.4-.2-.5-.5-.5-.4 0-.5.1-.5.4 0 .3.2.5.4.5.2.1.6-.2.6-.4zM23.9 21.8c0 .2-.1.3 0 .5 0 .1.1.2.2.2s.3 0 .4-.1c.2-.1.3-.3.2-.5 0 0 0-.1-.1-.1l-.1-.1c-.1-.2-.3-.3-.5-.1 0 0-.1.1-.1.2zM23.9 24.6c.2.1.4 0 .6-.1.2-.1.1-.3.1-.4v-.2c-.1-.1-.1-.2-.2-.2-.4-.1-.4-.1-.6.2 0-.2 0-.3-.2-.3s-.4-.2-.6 0c-.3.3-.3.4 0 .7l.1.1c.2.2.5.1.6-.2 0-.1.1-.2.1-.3v.4c-.1 0-.1.2.1.3zM20 21.1c.1-.2 0-.7-.2-.7h-.5c-.1.1-.2.3-.3.4-.2-.1-.4-.1-.5 0-.4.4-.4.5 0 .8h.1c.2.2.4 0 .6-.1.1-.1.1-.2.2-.4.1.4.5.2.6 0zM22.1 23.4c-.3-.2-.6-.1-.6.3v.3c.1.2.1.3.3.4.1 0 .5-.3.6-.4.1-.2-.1-.2-.2-.4 0-.1-.1-.1-.1-.2zM30.5 22.2c-.7.2-.9.6-.6 1.2v.1c.1 0 .1.1.2.1l.9-.3c.1 0 .1-.2.1-.3-.1-.3-.2-.5-.4-.8 0 .1-.2 0-.2 0zM25.6 21.6c0-.1.2-.3 0-.4-.2-.1-.4-.3-.6-.3-.4 0-.5.4-.3.7 0 0 0 .1.1.1.1.1.3.2.4.2.1.1.3-.1.4-.3zM24.7 21.8z"/><path d="M25.1 18.7c-.1-.7-.1-.7-.7-.5-.4.2-.5.5-.1.8.1.1.3.1.4.1-.1 0-.3 0-.4.2-.1.1-.1.2-.1.3 0 .1.1.3.2.4-.4.1-.5.6-.2.9-.3-.1-.5-.4-.8-.1-.1-.3-.2-.3-.5-.2-.3.1-.4.1-.4.5 0 .3.1.4.4.4.2 0 .3-.1.4-.2 0 .1.1.2.2.3-.5-.1-.6 0-.5.5 0-.1-.1-.2-.1-.2-.1-.3-.3-.4-.6-.2-.1-.2-.2-.3-.5-.3-.1 0-.1 0-.2-.1-.2-.4-.3-.4-.7-.3l-.1.1c-.2.1-.3.3-.1.4l-.3.3c.2-.4.2-.6-.1-.7-.1 0-.3 0-.5.1-.4.2-.4.3-.1.6.4.4.4.4.7 0 0 .1-.2.3-.1.4.2.2.5.3.8.1.2-.2.2-.4 0-.7h.3c0 .2 0 .4.3.5-.3 0-.3.2-.3.4-.2-.1-.5-.2-.6 0-.1.2-.2.5-.1.7.1.2.4.1.6.1.3 0 .3-.2.3-.5.2.3.3.1.5 0 .1 0 .1-.1.2-.1-.1.1-.1.3 0 .4 0 0 .1.1.1.2.1 0 .3.2.4.1.1-.1.4-.3.3-.5-.1-.2-.1-.5 0-.7v-.1c.1.3.1.3.4.3h.2c.1-.1.2-.1.3-.2 0-.2 0-.4-.1-.5.1-.1.3-.2.5-.3.2-.2.2-.3 0-.5.3.2.3.2.6-.1.1-.1.2-.2.2-.3 0-.1-.1-.3-.1-.4.2 0 .4-.1.4-.4 0-.2.1-.5-.2-.6-.1 0-.2 0-.3-.1 0 .2.2 0 .1-.3zm-3 4.3v-.3c0-.2-.1-.4-.3-.4.1-.1.2-.1.3-.2 0 .3.1.5.3.6l-.3.3zM20.9 21.2z"/><path d="M21 20.9c.3.3.5.3.7 0l.1-.1c0 .1-.1.2-.1.3v.2c0 .2.4.4.5.4.2 0 .2-.2.3-.4v-.1c.1-.2-.1-.4-.3-.5-.2-.1-.2 0-.4.1.2-.2.1-.3-.1-.4.4 0 .6-.3.5-.6 0-.1-.1-.1-.1-.2-.1-.1-.3-.3-.5-.1-.1.1-.3.2-.3.3v.4c-.2 0-.3.1-.3.3v.4c0-.1 0-.1 0 0-.1-.4-.4-.5-.8-.4-.1 0-.2.3-.2.5.1.3.4.5.6.2l.1-.1c.2 0 .3-.1.3-.2zM22.7 19.8c.2 0 .3-.1.3-.2.1-.2 0-.6-.2-.7-.2-.1-.4 0-.6.1h-.1c-.2.1-.2.3-.1.4.2.3.5.4.7.4zM16.9 19.4c-.1 0-.2.1-.3.2-.2.3.2.8.6.9.1-.1.3-.2.4-.3.2-.2.3-.2.1-.5-.3-.5-.3-.5-.8-.3zM21.9 24.9c0-.2-.1-.4-.3-.4-.4 0-.7.2-.7.5s.3.6.6.6c.1 0 .4-.4.4-.7zM22.3 26.3c.3 0 .3-.4.4-.6.1-.2 0-.3-.1-.4-.1-.1-.2-.1-.3-.1-.2 0-.7.4-.7.6v.1c.2.1.4.4.7.4zM21.1 26.2c.1-.1.2-.2.2-.3 0-.1 0-.1-.1-.1-.2-.4-.5-.5-.9-.2l-.1.1c-.1.1-.2.2-.1.3 0 .1.1.1.1.2.3.4.5.4.9 0zM22.6 24c-.2.2-.5.3-.6.5-.1.2.3.5.6.6.1 0 .5-.4.4-.6-.1-.1-.3-.3-.4-.5zM19.3 26.8c0 .2.2.3.4.3.3 0 .8-.3.7-.5-.1-.2-.3-.5-.4-.7h-.1l-.6.3c-.1.1 0 .3 0 .4v.2zM24.9 22.8c0-.1-.1-.2-.1-.2l-.1-.1c-.3-.1-.7.1-.7.5 0 .2 0 .4.3.5.2.1.5 0 .6-.2.1-.1 0-.3 0-.5zM26.1 20.4c0-.1-.1-.2-.1-.2-.2-.1-.4-.1-.7-.1l-.3.3c-.1.2-.1.4.1.5.1.1.3.2.4.2.2.1.3.1.4-.1.2-.2.2-.4.2-.6zM26.1 22.5c.2-.2.5-.4.6-.7.1-.2-.4-.5-.7-.5-.2 0-.4.3-.4.6 0 .2.5.7.5.6zM17.8 26.2c.3.1.5 0 .7-.2.2-.1.1-.3.1-.5 0-.1-.1-.3-.1-.4 0-.1-.1-.1-.2-.2-.4-.1-.7.1-.8.6v.1c-.1.3 0 .5.3.6zM23 22.9c0 .2 0 .4.3.5.5.2.6.1.6-.4 0-.4 0-.5-.5-.4-.1 0-.1.1-.2.1 0 0-.2 0-.2.2zM25.4 23.2c.2 0 .6-.4.6-.5 0-.2-.5-.6-.7-.6-.2 0-.4.2-.4.4 0 .3.2.7.5.7zM18.8 19.5c-.2 0-.7.3-.7.5s.4.7.6.7c.3 0 .5-.2.5-.4 0-.4-.2-.8-.4-.8zM18.3 18.6c-.4 0-.8.2-.8.5 0 .2.3.7.5.7s.7-.4.7-.5c0-.3-.2-.7-.4-.7z"/><path d="M18 24.9c.3-.1.3-.3.2-.5V24c0-.1-.1-.2-.2-.2-.6-.1-.7 0-.8.6v.2c0 .1 0 .1.1.2.1.2.4.2.7.1zM26.1 24c.1-.1.3-.1.4-.2.3-.2.4-.4.1-.6-.4-.5-.4-.5-.9 0-.1.1-.1.2-.1.3l.3.6c.1-.1.1-.1.2-.1zM17.3 23c-.2.5 0 .7.5.7.4 0 .4 0 .4-.4v-.1c.1-.4.1-.4-.3-.5-.4-.2-.4-.1-.6.3zM18 21.3c.2-.1.3-.4.5-.6-.2-.2-.3-.4-.5-.6h-.2c-.2.1-.4.2-.5.4-.2.2-.2.3 0 .5.1.1.2.2.3.2.1.1.3.2.4.1zM16.6 21.5c-.1.2-.1.4.1.5.1.1.3.2.4.2.3 0 .7-.6.6-.8-.2-.1-.4-.4-.6-.4-.2.1-.3.3-.5.5zM16.7 23.4c.3 0 .4-.1.5-.4 0-.1 0-.1.1-.2.1-.4.1-.4-.3-.6-.3-.1-.4-.1-.6.1-.3.4-.3.5-.1.8.1.2.2.3.4.3z"/><path d="M16 24.1c-.1.2 0 .3.1.4.1.1.3.2.4.2.3 0 .5 0 .5-.3 0-.2.1-.4.1-.6 0-.1-.1-.3-.2-.3-.4-.2-.7-.1-.9.3.1.2.1.3 0 .3zM16.3 20.3c-.2.1-.4.2-.5.3 0 0-.1.1-.1.2 0 .2.2.5.4.6.3.1.4.1.6-.1.1-.1.2-.2.2-.3 0-.1.1-.1.1-.2 0-.2-.4-.6-.7-.5.1 0 0 0 0 0zM15.1 22.2c.1.2.2.4.3.5.1.1.4.1.5.1.3-.2.4-.5.5-.8v-.1c-.1-.2-.4-.4-.6-.4-.2 0-.7.6-.7.7zM19.1 26c.3 0 .6-.3.6-.5s-.3-.7-.4-.7c-.4 0-.7.2-.7.4-.1.5.2.8.5.8zM19.2 14.2c.1 0 .2 0 .2-.1.2-.2.4-.4.5-.6v-.3l-.5-.5c-.1-.1-.3-.1-.4 0-.2.2-.3.4-.5.7v.2c.3.2.5.4.7.6zM15.1 16.8h.2c.3 0 .4 0 .4-.3 0-.2 0-.3.1-.5 0-.2 0-.3-.2-.3s-.4-.1-.7-.1c-.3 0-.4 0-.4.3v.3c0 .6 0 .6.6.6zM16.2 15.6c.2.1.5.2.8.2.1-.1.2-.1.3-.2.1-.2.2-.3.2-.5.1-.2 0-.3-.2-.4-.2-.1-.4-.2-.7-.3-.1-.1-.3 0-.3.1-.1.3-.2.5-.2.8 0 .1 0 .3.1.3z"/><path d="M15.1 15.3c.2 0 .4.1.6.1.1 0 .2 0 .3-.1.1-.3.2-.5.2-.8 0-.1 0-.2-.1-.2-.2-.1-.4-.2-.7-.3-.3-.1-.4.1-.5.3 0 .2-.1.4-.1.6 0 .3.1.4.3.4zM16.8 14.3c.2.1.5.2.7.3.1 0 .2 0 .2-.1.1-.2.3-.4.4-.7 0-.1 0-.2-.1-.3-.2-.2-.4-.3-.7-.4-.1 0-.3 0-.3.1-.2.3-.3.6-.4.9.1.1.1.2.2.2zM18.2 15.1c.5.2.5.2.8-.2.1-.1.2-.3.2-.4-.1-.1-.1-.2-.2-.2-.1-.1-.2-.1-.3-.2-.5-.3-.5-.3-.8.2-.2.5-.2.6.3.8zM14.9 18.1h.2c.6-.1.7-.2.6-.8 0-.2-.1-.3-.3-.3H14.8c-.3 0-.4 0-.4.4v.5c.1.2.2.2.5.2zM11.6 22.5v-.4.4zM13.4 18.4c-.2 0-.2.1-.2.3.1.3.2.5.3.8 0 .1.2.1.2.1.3-.1.5-.2.7-.3.1 0 .1-.1.1-.1 0-.3-.1-.5-.1-.7 0-.1-.1-.2-.2-.2-.2 0-.5 0-.8.1zM12.6 21.7c.1 0 .1-.2.1-.3-.1-.2-.3-.5-.4-.7 0-.1-.1-.1-.2-.1-.2.1-.3.1-.5.2v1.1l.2.2h.2c.2-.1.4-.2.6-.4zM12.5 20c.2-.1.5-.1.7-.2.1 0 .1-.2.1-.2 0-.2-.1-.5-.2-.7 0-.1-.1-.1-.2-.2-.3 0-.6.1-.8.1-.1 0-.2.1-.2.2V19.3c.1.2.2.5.3.7h.3zM13.2 17.7c.1.5.1.5.6.5.6 0 .6 0 .6-.7s0-.6-.6-.6h-.3c-.3 0-.4.2-.3.4-.1.2-.1.3 0 .4zM20 13.2c.1.1.2.1.3 0 .2-.2.4-.3.6-.5.1-.1.1-.2 0-.3-.1-.2-.2-.4-.4-.5-.1-.1-.2-.1-.3-.2-.1.1-.3.1-.3.2-.1.2-.3.3-.4.5-.1.1-.1.2 0 .3.2.2.4.3.5.5zM26.2 16.1c0 .1.1.2.2.3.1 0 .2.1.4.1.3 0 .4-.1.4-.3 0-.2.1-.4.1-.6 0-.2 0-.2-.2-.3-.2 0-.3-.1-.5-.1-.4 0-.5.1-.5.5.1.1.1.2.1.4zM25.2 13.7c.1 0 .3 0 .4-.1.4-.1.4-.1.4-.5 0-.2-.1-.4-.1-.6-.1-.2-.2-.2-.4-.2-.2.1-.5.1-.7.2-.1 0-.2.1-.2.3 0 .2.1.4.1.5.2.4.3.5.5.4zM25.8 13.9c-.2 0-.5.1-.7.1-.1 0-.2.1-.2.2 0 .2.1.4.1.6 0 .2.2.3.4.3h.3c.4 0 .5-.1.5-.5 0-.2 0-.4-.1-.5 0-.2-.1-.3-.3-.2zM27.5 15.8c-.1.7-.1.7.6.9h.1c.2.1.3 0 .3-.2.1-.2.2-.5.2-.7.1-.2 0-.3-.2-.3-.3-.1-.5-.1-.8-.2-.2 0-.3.1-.3.2.1.1.1.2.1.3zM26.4 14.8c0 .1.1.2.2.2.2 0 .5.1.7.1.1 0 .2-.1.2-.2 0-.2.1-.5.1-.7 0-.2-.1-.3-.3-.3h-.8c-.1 0-.1.1-.2.2v.2c0 .2 0 .3.1.5zM23.8 14.1c.3-.1.5-.1.7-.2.1 0 .1-.2.1-.3 0-.2-.1-.5-.2-.7 0-.2-.2-.3-.3-.2-.2.1-.5.2-.7.3-.1 0-.1.2-.1.2.1.2.2.5.3.7l.2.2zM23.9 14.3c-.2.1-.3.2-.2.4.1.2.1.3.2.5s.2.3.4.2c.6 0 .7-.2.6-.7 0-.1-.1-.3-.1-.4 0-.1-.1-.2-.2-.2-.3.1-.5.1-.7.2zM20.5 13.7l.5.5c.1 0 .2.1.2 0 .2-.1.4-.2.5-.3.1 0 .1-.1.1-.2v-.1c-.2-.3-.4-.5-.6-.8H21c-.2.1-.4.3-.6.5 0 .1-.1.2.1.4zM21.9 13.3c.1.1.2.2.4.1l.6-.3c.1 0 .1-.1.2-.2-.2-.3-.3-.6-.5-.9 0-.1-.2-.1-.3 0-.2.1-.5.3-.7.5-.1.1-.1.2 0 .3.1.2.2.4.3.5zM22.3 13.6c-.2.1-.2.2-.1.4.1.1.2.3.3.4.2.2.7.2.9 0 0-.1.1-.1.1-.3-.1-.3-.2-.5-.4-.8 0 0-.2-.1-.2 0l-.6.3zM12.8 23.4c.2-.1.4-.3.5-.4l.1-.1v-.1c-.2-.2-.3-.5-.5-.7 0-.1-.2-.1-.2-.1-.3.1-.6.3-.7.5v.3l.6.6h.2zM22.1 30.3c.1-.1.2-.2.1-.3-.1-.2-.3-.4-.4-.6 0-.1-.1-.1-.2-.1-.3.1-.5.2-.7.3-.1 0-.1.2-.1.2.1.2.2.5.3.7.1.2.2.2.4.1.2 0 .4-.2.6-.3zM28.4 28.9c.1-.2.1-.5.2-.8-.1-.1-.1-.2-.2-.2-.2-.1-.5-.1-.7-.2-.1 0-.2.1-.3.1-.1.2-.2.4-.3.7-.1.2 0 .3.1.3.2.1.5.2.7.3.3.1.5 0 .5-.2zM27.2 27.5c-.3-.1-.6-.2-.8-.2-.1 0-.3.3-.4.5v.1c-.1.2-.1.4.1.4.2.1.5.2.7.3.1 0 .2 0 .2-.1.1-.3.2-.5.3-.8 0 0 0-.1-.1-.2zM28.7 28.2c0 .2-.1.4-.1.6v.2l.9-.9c-.1 0-.3-.1-.4-.1-.2 0-.3 0-.4.2zM26 28.4c-.1 0-.1 0-.2.1-.1.2-.3.4-.4.6 0 .1 0 .2.1.3.2.2.4.3.7.5.1.1.2 0 .3-.1.1-.3.3-.5.4-.8 0 0 0-.2-.1-.2-.3-.1-.5-.2-.8-.4zM29.5 25.1c.1 0 .3-.1.4-.1.2 0 .2-.1.2-.3-.1-.3-.1-.5-.2-.8 0-.2-.1-.2-.3-.2-.2.1-.3.1-.5.2-.3.1-.4.1-.4.5.1.7.3.9.8.7zM26.2 30.3c-.1.2-.2.3-.3.5.3-.1.6-.3.9-.5-.1-.1-.2-.1-.3-.1 0 0-.2.1-.3.1zM29.6 25.3c-.6.1-.6.1-.6.6 0 .6-.1.6.6.6.6 0 .7-.1.6-.7 0-.6 0-.6-.6-.5zM25.6 31c.2-.2.3-.5.4-.7 0-.1 0-.2-.1-.3-.2-.1-.4-.3-.6-.4-.1-.1-.2-.1-.3.1-.1.2-.3.3-.4.5-.1.1-.1.2 0 .3.2.2.4.3.5.5 0 0 .1 0 .1.1.2 0 .3-.1.4-.1zM31 23.6c-.2.1-.5.1-.7.2-.1 0-.1.2-.1.3 0 .2.1.4.1.6 0 .2.1.3.3.3.2 0 .4-.1.6-.1h.1c.1-.2.1-.4.2-.6l-.3-.6c0-.1-.2-.2-.2-.1zM12.6 25.7c-.1-.1-.2-.1-.3-.2.1.2.2.5.3.7.1-.1.1-.3.1-.4 0 0 0-.1-.1-.1zM30.3 26.9c.1-.1.1-.2.2-.3-.1 0-.2.1-.2.3zM30.9 25c-.7.1-.6.1-.5.7 0 .4.1.6.3.6.2-.4.4-.9.6-1.3h-.4z"/><path d="M43.3 21.7c0-.2-.1-.4-.3-.6-.8-.8-3.9-1.9-7.4-2.2 3.2-1.7 6.5-4.4 6.1-5.5-.2-.5-.8-.7-2.1-.7-1.4 0-3.7.3-6 1.1 2.3-2.8 4.3-6.5 3.4-7.4-.2-.2-.4-.3-.7-.3-1.1 0-4.1 1.5-6.8 3.7 1.1-3.4 1.5-7.7.4-8.2-.1 0-.2-.1-.3-.1-1.1 0-3.6 2.9-5.2 6.1-.3-3.5-1.5-7.6-2.7-7.6-1.2 0-2.5 4.1-2.8 7.7-1.7-3.2-4.2-6.1-5.3-6.1h-.3c-.2.1-.4.3-.5.5-.4 1-.2 4.3.8 7.6C11.1 7.6 8.1 6.1 7 6.1c-.3 0-.5.1-.6.2-.2.2-.3.4-.3.7 0 1.1 1.4 4.1 3.7 6.8-2.1-.7-4.4-1.2-6-1.2-1.2 0-1.9.3-2.2.8-.1.3-.4 1 2.1 3.1 1.1.9 2.4 1.7 3.8 2.4C4 19.1 0 20.2 0 21.7c0 1.4 4.1 2.5 7.7 2.8-1.4.7-2.8 1.6-3.9 2.4-2.6 2-2.2 2.8-2.1 3.1.2.5.9.8 2.1.8 1.3 0 3.5-.3 6-1.1C7.4 32.4 5.3 36 6.4 37c.2.2.4.3.7.3 1.2 0 4.1-1.5 6.7-3.7-1.1 3.4-1.7 7.6-.3 8.2.1 0 .2.1.3.1 1.2 0 3.5-2.8 5.1-6 .3 3.6 1.3 7.6 2.8 7.6 1.4 0 2.5-4.1 2.8-7.7 1.6 3.1 3.8 6.1 5.2 6.1.1 0 .3 0 .4-.1 1.3-.5.7-4.7-.3-8.1 2.4 2.1 5.2 3.7 6.5 3.7.4 0 .6-.1.8-.3 1-1-1.2-4.7-3.5-7.4 2.3.7 4.6 1 6.1 1 1.6 0 2-.3 2.1-.6.1-.2.1-.4 0-.7-.4-1-2.9-3.2-6-4.8 3.5-.5 7.5-1.7 7.5-2.9zM36 7.3c-.3 1.2-1.9 4.4-4.4 6.9l-.5.5c-.5.2-.9.5-1.4.7-.5-.6-1.1-1.2-1.7-1.7.2-.4.4-.8.7-1.3l.6-.6c2.4-2.5 5.5-4.2 6.7-4.5zm-12 4.5c.1-.4.3-.9.5-1.3v-.1c.1-.2.2-.5.3-.7 1.5-3.5 3.8-6.1 4.6-6.8.2 1.2-.1 4.8-1.5 8.1-.3.7-.6 1.4-1 2.1-.9-.6-1.8-1-2.9-1.3zM21.7 1.4c.6 1 1.7 4.4 1.7 8v.8c-.2.5-.3 1-.5 1.5-.4 0-.8-.1-1.2-.1-.5 0-.9 0-1.4.1h.1c-.1-.5-.3-.9-.4-1.4v-.9c0-3.8 1.1-7 1.7-8zm-7.8 1.5c1 .7 3.3 3.4 4.7 6.7.1.3.2.6.3.8.2.5.3.9.4 1.3-1 .3-2 .7-2.9 1.2-.3-.6-.7-1.3-1-2.1-1.5-3.3-1.7-6.7-1.5-7.9zM7.3 7.3c1.2.3 4.4 2 6.9 4.4.2.2.4.4.5.6.2.5.5.9.7 1.4-.6.5-1.2 1.1-1.7 1.7-.4-.2-.8-.4-1.2-.7-.2-.2-.4-.4-.7-.6-2.7-2.6-4.2-5.7-4.5-6.8zM34 23.4h-.8c-.5-.2-1-.3-1.5-.5V23.3h-.1c-.2.1-.3.2-.2.4.1.1.1.3.2.4.7.2 1.4.5 2.2.8 3.5 1.4 6 3.7 6.7 4.6h-.8c-1.6 0-4.5-.4-7.2-1.5-.7-.3-1.4-.6-2.1-1 0 .1-.1.1-.1.2 0-.5 0-.5-.6-.5h-.3c-.2 0-.3.1-.4.3 0 .2 0 .4-.1.6 0 .2 0 .3.2.3s.3.1.5.1l1.2.6c.2.2.5.4.7.6 2.8 2.8 4.4 6.1 4.5 7-1.1-.1-4.2-1.8-6.9-4.6-.2-.2-.4-.4-.5-.6-.2-.5-.5-.9-.7-1.4l.1-.1c0-.1-.1-.2-.1-.2l-.6-.3c-.2 0-.3 0-.3.1-.1.2-.2.5-.3.7v.2c.1.1.3.2.4.3H27c.4.6.7 1.3 1 2 1.5 3.7 1.8 7.3 1.5 8.2-.8-.4-3.1-3-4.7-6.9-.3-.7-.6-1.5-.8-2.2.3-.1.7-.2 1-.3 0-.1-.1-.2-.3-.4-.4-.4-.4-.4-.7 0-.5.5-.6.4-.3.8h-.2c-.3-.3-.4-.3-.8.1h.2c.1.4.3.9.4 1.3v.9c0 4-1.1 7.4-1.7 8.1-.6-.6-1.7-4-1.7-8.1V33c.2-.5.3-1 .4-1.4h-.1c.4.1.8.1 1.2.1l-.3-.6c-.1-.2-.2-.2-.3-.1-.2.1-.5.2-.7.3-.1 0-.1.1-.2.2v.1h-.2c-.1-.1-.2-.1-.2-.2-.1 0-.2.1-.3.1-.2.7-.4 1.4-.7 2.1-1.5 3.7-3.9 6.4-4.7 6.9-.3-.8 0-4.3 1.6-8.2.3-.7.6-1.4 1-2 0 0-.1-.1-.2-.1-.1-.1-.2-.1-.3-.2.4 0 .3-.1.4-.5.1-.6 0-.6-.5-.7h-.1c-.5-.1-.6 0-.7.4l.4.4-.6 1.2c-.2.2-.4.5-.6.7-2.7 2.7-5.9 4.4-7 4.5 0-.9 1.6-4 4.6-6.9l.6-.6c.4-.2.9-.4 1.3-.7-.1-.1-.2-.2-.2-.3.1 0 .1-.1.2-.1l.3-.6c.1-.2 0-.3-.1-.3-.2-.1-.5-.2-.7-.3H13c0 .1-.1.1-.1.2.1.2.2.3.3.5-.7.4-1.3.7-2.1 1-2.7 1.1-5.6 1.6-7.2 1.6-.5 0-.8-.1-1-.1.4-.8 3-3.1 6.9-4.7.7-.3 1.5-.6 2.2-.8 0 .1 0 .2.1.3h.1c.6-.4.6-.6.1-1.1-.3-.3-.3-.3-.5-.3v0c-.4.1-.9.3-1.3.4h-.9c-4 0-7.4-1.1-8.1-1.7.6-.6 4-1.7 8.1-1.7h.8c.5.2 1 .3 1.4.4v-.1.3c.2-.1.5-.2.5-.4v-.1c-.1-.2-.2-.5-.4-.7V19c-.7-.2-1.5-.4-2.2-.7-3.7-1.5-6.4-3.9-6.9-4.7.1 0 .4-.1 1-.1 1.6 0 4.4.5 7.1 1.7.7.3 1.4.6 2.1 1-.4.7-.8 1.5-1 2.3 0-.1 0-.2.1-.2h.1c.3 0 .5-.1.8-.2.1 0 .2-.1.1-.3 0-.2-.1-.4-.1-.6-.1-.3-.1-.4-.3-.4 0-.1.1-.1.1-.2.3-.1.3-.2.3-.5 0-.1.1-.2.2-.2v.1c.1.5.1.5.6.5h.3c.3 0 .3 0 .4-.3v-.7c0-.1-.1-.2-.2-.2-.2 0-.3-.1-.5-.1 0-.1.1-.1.1-.2.6.2.8 0 .9-.7v-.2l.6-.6v.1c.3.1.5.3.8.4.1-.1.2-.1.2-.2.1-.3.2-.5.3-.8v-.2l-.1-.1c.1 0 .1-.1.2-.1h.2c.1 0 .2-.1.3-.3.1 0 .2-.1.2-.1-.1.1-.1.2-.2.4 0 .1 0 .2.1.2.2.1.4.3.6.4.2.1.3.1.4-.1.1-.1.2-.2.2-.3.3-.4.3-.4-.1-.8l-.1-.1c.1 0 .2-.1.2-.1l.3.3c.1.1.1.1.2.1s.1-.1.2-.1c.2-.2.3-.4.5-.6.3 0 .5-.1.8-.1v.1c.1.2.3.4.4.6.1.1.2.1.3.1.2-.1.4-.3.6-.4.1-.1.2-.2.1-.3v-.1c.4 0 .7.1 1.1.1-.1.1-.2.1-.3.2 0 0-.1.1-.1.2.1.2.2.5.3.7 0 .1.2.1.3.1.2-.1.5-.2.7-.3.1 0 .1-.1.2-.2-.1-.2-.1-.4-.1-.5.1 0 .2 0 .2.1s.1.3.1.4c0 .1.2.2.3.1.2-.1.4-.1.5-.2h.1c.3.1.5.2.8.4v.4c0 .6 0 .6.6.6h.4c.1 0 .2-.1.2-.2.1.1.2.1.2.2 0 .2.1.2.3.3l.2.2h-.3c-.1 0-.2.1-.2.2 0 .2-.1.5-.1.7 0 .1.1.2.1.2.2.1.5.1.8.2.1 0 .2-.1.2-.1.1-.2.1-.3.2-.5l.2.2c0 .1-.1.3-.1.4 0 .2 0 .3.2.3.1 0 .3.1.4.1h.2c.2.2.3.5.5.7 0 0-.1 0-.1.1-.1.2-.3.4-.3.6 0 .1 0 .2.1.3.1.1.3.2.4.3.4.2.4.3.6 0 0 .1.1.1.1.2-.1.2-.1.3.1.4l.1.1c0 .1.1.2.1.2-.3-.8-.6-1.6-1-2.3.6-.3 1.3-.7 2.1-1 2.8-1.1 5.6-1.6 7.2-1.6h.8c-.7 1-3.4 3.3-6.7 4.7-.7.3-1.5.6-2.2.8-.1-.2-.1-.4-.2-.7-.1-.1-.2-.2-.4-.2 0 0-.2 0-.2.1-.2.2-.3.4-.5.6-.1.1-.1.2 0 .3.2.2.3.4.5.5.1.1.3.1.4 0 .2-.1.3-.2.4-.4v.2s-.1 0-.1.1l-.1.1c-.4.3-.4.5 0 .9l.4.4v.7c-.1-.1-.2 0-.3 0-.2.1-.4.2-.6.4-.1.1-.1.2-.1.3l.3.6c.1.2.2.2.4.1.1 0 .1 0 .2-.1.1-.4.1-.9.1-1.4 0-.5 0-.9-.1-1.3v.1c.4-.1.9-.3 1.4-.4h.9c3.8 0 7 1.1 8 1.7-1 .5-4.4 1.6-7.9 1.6z"/><path d="M14.7 28.5c-.2-.1-.4-.1-.6-.1.2.3.5.5.8.8 0-.1 0-.2.1-.2 0-.3-.1-.5-.3-.5zM16.5 27.8c0-.1-.1-.2-.2-.2-.2 0-.4-.1-.6-.2-.1 0-.2 0-.3.1-.1.3-.2.5-.2.8 0 .1.1.3.2.3.3.1.5.1.8.1.2 0 .3-.1.3-.2-.1-.2 0-.4 0-.7zM13.8 28c0 .1.1.1.2.1.3.1.5.1.9.2.1-.1.2-.1.2-.2.1-.2.2-.4.2-.7 0-.1 0-.2-.1-.2-.2-.1-.5-.2-.8-.3-.1 0-.2 0-.2.1-.1.2-.3.5-.4.8-.1 0-.1.1 0 .2zM13.4 24.6c-.2-.2-.4-.4-.6-.5-.1-.1-.3-.1-.4 0l-.4.4v.1c.1.2.1.4.2.7.1.1.3.2.4.3.1.1.2.1.3-.1.1-.2.3-.4.4-.5.1-.2.1-.3.1-.4zM14.3 26c.3-.5.3-.5-.2-.8-.1-.1-.3-.2-.4-.3-.1 0-.1 0-.1.1l-.5.5c-.2.3-.1.4.2.6.1.1.2.1.3.1.5.3.5.3.7-.2zM24.9 29.2c-.2-.1-.4-.3-.6-.4h-.2c-.2.1-.3.2-.5.4-.1.1-.1.1-.1.2s0 .1.1.2l.6.6h.3c.2-.2.3-.4.5-.6.1-.2.1-.3-.1-.4zM23.5 29.7h-.2c-.2.1-.4.3-.6.4l-.1.2c.2.3.3.5.5.7 0 .1.2.1.3 0 .2-.2.4-.4.7-.6v-.1-.1c-.2-.1-.4-.3-.6-.5zM22.5 30.6c-.1-.1-.2-.2-.4-.1s-.4.3-.6.4c-.1 0-.1.2-.1.2.1.2.2.5.3.7h.6c.2-.1.3-.3.5-.4v-.2c0-.3-.2-.5-.3-.6zM28.8 16.8l.6.3h.2c.2-.3.3-.6.5-.9l-.3-.3c-.2-.1-.5-.2-.8-.2-.1 0-.2.1-.2.1-.1.2-.2.5-.2.7 0 .1.1.2.2.3zM20.6 30c-.1-.2-.2-.2-.3-.1-.2.1-.4.1-.7.2-.1 0-.2.1-.2.3.1.2.1.5.2.7 0 .1.1.2.3.3.3-.2.6-.3.9-.5v-.2c0-.3-.1-.5-.2-.7zM19 30.2c-.2 0-.4.1-.5.1-.2 0-.4.1-.3.4v.4l.9.3c.5-.2.5-.1.3-1-.1-.1-.2-.2-.4-.2zM29.1 23.9c.6-.2.7-.4.4-1 0-.1-.1-.2-.2-.2-.3-.1-.9.3-.9.6 0 .6.3.8.7.6zM19 17.1h.2c.4.1.6-.1.6-.5 0-.1 0-.2-.1-.3-.3-.4-.9-.4-1.1 0-.2.4 0 .7.4.8zM17.9 15.1c-.3 0-.3.2-.4.4-.1.1-.1.2-.1.3-.1.2 0 .4.2.4s.3.1.5.1c.3.1.7-.3.7-.6v-.1c-.1-.1-.6-.5-.9-.5zM16.6 15.9c-.6-.1-.6-.1-.7.4-.1.7-.1.7.6.8.2-.1.4-.1.5-.2.4-.5.2-.9-.4-1z"/><path d="M17.2 17.2c.1.3.3.3.6.3.5 0 .7-.2.7-.6 0-.2-.1-.4-.3-.4-.3-.1-.5-.2-.8-.1-.2.1-.3.6-.2.8zM19.7 14.2c-.1 0-.1 0 0 0-.2.4-.2.4.1.6.1.1.3.2.4.3.1 0 .1.1.2.1.2 0 .6-.4.6-.7l-.3-.3c-.5-.6-.7-.6-1 0zM19.4 14.8c-.2.1-.5.5-.5.7 0 .3.2.4.4.4 0 0 .1 0 .1.1.4.1.8-.1.8-.5 0-.2-.6-.7-.8-.7zM20.6 15.2c-.3.3-.3.6 0 .8.1 0 .2.1.2.1.4.2.8 0 .8-.5v-.1c-.2-.2-.4-.4-.6-.5 0-.1-.3.1-.4.2zM16.2 18.2c.2 0 .4-.1.6-.1.1 0 .1-.1.1-.1.2-.4.1-.9-.5-.9s-.6 0-.7.6c.1.4.3.6.5.5zM13.3 20c-.2.1-.5.2-.7.3-.1 0-.1.1-.2.3.2.3.4.6.5.9h.2c.2-.1.5-.2.7-.4.1 0 .1-.2.1-.2-.1-.2-.2-.5-.3-.7-.1-.2-.3-.2-.3-.2z"/><path d="M13.5 22.5c0 .1.2.1.2.1.2-.2.5-.3.6-.5.2-.2 0-.4-.1-.5-.1-.2-.2-.4-.5-.4-.2.2-.5.4-.8.6v.2c.3.1.5.3.6.5zM15.3 18.2c-.1 0-.3 0-.4.1-.1 0-.2.1-.2.2 0 .2.1.5.1.7 0 .2.2.2.4.2.2-.1.3-.1.5-.2.3-.1.3-.2.3-.5-.1-.5-.2-.6-.7-.5zM12.9 23.9c.2.2.4.3.6.5.1.1.2.1.3 0 .2-.2.3-.4.4-.6v-.3c-.1-.2-.3-.4-.4-.5 0-.1-.1-.1-.2-.1h-.1c-.2.2-.5.4-.7.6 0 .1 0 .3.1.4zM13.8 19.8c-.1 0-.1.2-.1.3.1.2.2.5.3.7.1.1.2.2.3.1.2-.1.4-.3.7-.4 0 0 .1-.1.1-.2 0-.2 0-.3-.1-.5 0-.2-.2-.3-.4-.3-.3.1-.6.2-.8.3zM27.8 16.7c-.6-.3-.8-.1-.8.5 0 .4.1.5.4.6.3.1.5 0 .6-.3 0-.1.1-.2.1-.3.1-.3.1-.4-.3-.5zM26.3 18.1v.4c0 .4.1.6.3.6.1 0 .3 0 .4-.1.1 0 .2-.1.2-.2s0-.2.1-.2c.1-.4.1-.5-.3-.7-.2-.1-.7 0-.7.2zM29.3 17.2c-.2-.1-.5-.2-.7-.3h-.2c-.1.1-.4.9-.3 1 .2.1.4.3.7.5.1-.1.2-.1.3-.2.1-.2.2-.4.4-.7 0-.1 0-.2-.2-.3zM25.9 16.7c-.1.2-.1.8 0 .9.3.3.7.2.9-.2 0-.1.1-.3.1-.4 0-.1 0-.2-.1-.3-.2-.3-.7-.3-.9 0zM29.6 19l-.1-.1c-.6-.4-.7-.4-1.1.3-.1.3.3.8.6.8 0 0 .1 0 .2-.1s.3-.3.4-.5c.2-.1.2-.3 0-.4zM22.1 14.1c0-.1-.2-.1-.2-.1l-.6.3c-.1 0-.1.1-.1.2 0 .3.4.7.8.7.1 0 .3-.1.4-.2.1-.1.2-.3.1-.5-.2 0-.3-.2-.4-.4zM23.4 14.7c-.4 0-.8.2-.8.5s.4.8.7.8c.3 0 .6-.2.6-.5s-.4-.8-.5-.8zM25.4 15.3h-.1c-.3 0-.4.2-.4.5 0 .2.1.4.2.5 0 .1.1.1.2.2.5.2.8 0 .8-.5-.1-.9-.1-.7-.7-.7zM22.4 15.4c-.2 0-.5.2-.6.4-.1.3-.1.4.1.6l.2.2c.1.1.2.1.3.2.1 0 .2 0 .2-.1.1-.2.3-.3.3-.5 0-.1-.1-.2-.2-.4 0-.1-.1-.2-.2-.2 0-.1 0-.2-.1-.2z"/><path d="M24.8 15.9c-.1-.3-.1-.3-.4-.3h-.1c-.4 0-.7.4-.5.8 0 .1.1.2.1.2.2.2.4.3.6.2.3-.2.4-.3.3-.6.1-.1.1-.2 0-.3zM24.6 17.2c.1.2.2.5.4.7.2-.1.4-.1.6-.2.1 0 .1-.2.1-.3 0-.5-.2-.7-.5-.7-.1 0-.3.1-.4.2-.1 0-.2.1-.2.3zM22.3 29.9h.2c.2-.1.4-.3.6-.4.1 0 .1-.1.1-.2 0-.2-.6-.8-.8-.7-.2.1-.3.1-.4.2-.1.1-.1.2-.2.2v.1c.2.4.4.6.5.8zM26.3 26.1c0-.3-.2-.6-.5-.6-.5 0-.7.1-.7.4 0 .5.1.6.7.6.3.1.4 0 .5-.4z"/><path d="M26.5 27.2c.2.1.3.1.5.1s.3-.1.4-.3c0-.1.1-.2.1-.4.1-.3-.1-.5-.4-.5h-.5c-.2 0-.4.2-.5.5.1.4.2.5.4.6zM26.1 27.3c.1-.3 0-.4-.2-.5-.2-.1-.3-.1-.5-.1-.3-.1-.6.2-.6.5.1.1.1.3.2.4.4.4.9.3 1.1-.3zM27.7 27.6c.3.1.5.1.8.2.1 0 .2 0 .3-.2 0-.1 0-.3.1-.4.1-.6.1-.6-.6-.6-.5 0-.5 0-.7.5 0 .1 0 .1-.1.2 0 .1.1.3.2.3zM24.1 28.4c0-.3-.4-.6-.8-.6-.3 0-.6.2-.6.6 0 .2.5.7.7.7.2 0 .7-.5.7-.7z"/><path d="M25 29s.2 0 .2-.1c.1-.2.3-.3.4-.5.1-.2.1-.3-.1-.5-.1-.1-.3-.1-.4-.2-.4-.1-.8.2-.8.6 0 0 0 .1.1.2.2.3.4.4.6.5zM14.4 25.2c.1 0 .2.1.3.1.1-.1.2-.1.2-.1l.3-.6c0-.1 0-.2-.1-.3-.1-.1-.2-.3-.4-.4-.1-.1-.3-.1-.4 0-.2.2-.3.4-.5.6-.1.1 0 .2.1.3.2.2.4.3.5.4zM29.8 19.4c-.1.2-.3.4-.4.6v.3c.1.2.3.4.4.6 0 0 .1 0 .1.1h.1c.2-.2.5-.4.7-.6v-.3l-.6-.6c-.1-.2-.2-.2-.3-.1z"/><path d="M30.2 21.1c.1.2.2.4.4.7 0 .1.2.1.2.1.3-.1.5-.3.8-.5.1-.1.1-.2 0-.4-.2-.2-.3-.4-.5-.6 0 0-.1-.1-.2-.1h-.1l-.6.6c-.1.1-.1.2 0 .2zM30.4 21.9c-.1-.2-.3-.5-.4-.7 0-.1-.2-.1-.2-.1-.2.2-.5.4-.7.6v.2c0 .2.1.3.2.5.1.1.2.1.3.2.3-.2.6-.3.9-.5-.1-.1 0-.2-.1-.2zM29.2 20.3c-.2-.2-.3-.2-.5 0-.1.1-.2.3-.4.4-.1.2-.1.4 0 .5.1.1.2.2.4.3.2-.1.3-.1.4-.2.6-.3.6-.5.1-1zM28.8 25.8v-.2c0-.3-.1-.4-.4-.4-.1 0-.3 0-.4.1-.3.1-.6.6-.3.9.2.2.7.3 1 .2.2-.1.1-.3.1-.6 0 .1 0 .1 0 0zM24.7 27.3c-.1-.1-.2-.3-.3-.3-.2-.1-.3-.1-.5-.2-.2 0-.3 0-.4.2-.2.3-.1.7.2.9.1.1.2.1.3.2h.2c.2-.2.4-.5.5-.8zM16.9 28.9h.6c.3 0 .3-.1.3-.3 0-.2 0-.4-.1-.6 0-.1-.1-.2-.1-.2-.2-.1-.5-.1-.7-.1-.1 0-.2.1-.3.2-.1.2-.1.4-.1.6 0 .2.1.4.4.4zM18 31c-.1-.7-.1-.7-.7-.6-.3 0-.4.1-.5.1l1.2.6V31zM29.3 18c-.2.4-.2.4.1.7l.3.3.1.1.1-.1c.1-.1.2-.2.3-.4.4-.5.4-.6-.2-.8-.4-.4-.3-.4-.7.2zM16.4 27.4c.1 0 .2 0 .3-.1.1-.2.1-.5.2-.7 0-.1-.1-.2-.2-.2-.2-.1-.4-.2-.6-.2-.2-.1-.3 0-.4.2-.1.2-.1.4-.2.6-.1.1 0 .2.1.3.3 0 .6.1.8.1zM14.4 26.8c.3.1.5.2.8.3.1 0 .2 0 .2-.1.1-.3.2-.5.3-.8 0-.1-.1-.1-.2-.2-.2-.1-.4-.2-.5-.3-.1-.1-.3-.1-.3.1-.1.2-.2.5-.4.7-.1.1-.1.2.1.3zM16.9 30.3c.2 0 .4 0 .5-.1.4 0 .4-.1.4-.5 0-.1 0-.3-.1-.4 0-.1-.1-.2-.2-.2-.2 0-.4 0-.7-.1-.2 0-.3.1-.3.2 0 .2-.1.5-.1.7.1.3.2.4.5.4zM20.9 29.4c.2-.1.4-.1.5-.2l.3-.3c-.1-.1-.1-.2-.1-.2-.1-.1-.2-.2-.2-.3-.1-.1-.2-.3-.4-.2-.3 0-.5.1-.6.4v.2c.1.2.2.4.2.6h.3zM18.6 30.2c.6-.1.6-.1.5-.8-.1-.5-.1-.5-.6-.4-.6 0-.7.1-.6.7.1.6.1.6.7.5zM21.9 28.7c.3 0 .7-.3.7-.6 0-.1 0-.2-.1-.2-.2-.1-.3-.3-.5-.4-.1-.1-.2-.1-.3-.1-.2 0-.4.4-.4.6 0 .1.5.7.6.7zM19.6 29.9c.3-.1.6-.2.8-.3.1 0 .1-.1.1-.1-.1-.3-.3-.6-.4-.9 0 0-.1 0-.2-.1-.1 0-.3 0-.4.1-.3 0-.4.2-.3.4 0 .2.1.5.2.7 0 .1.1.2.2.2z"/></g></svg>